<?xml version="1.0" encoding="UTF-8" standalone="no"?>
<!-- Created with Inkscape (http://www.inkscape.org/) -->

<svg
   width="155.17039mm"
   height="43.845795mm"
   viewBox="0 0 155.17039 43.845795"
   version="1.1"
   id="svg1"
   xmlns="http://www.w3.org/2000/svg"
   xmlns:svg="http://www.w3.org/2000/svg">
  <defs
     id="defs1" />
  <g
     id="layer1"
     transform="translate(-79.639582,-79.90417)">
    <path
       id="path2"
       d="M 79.699237,109.13436 H 102.96514 V 94.816881 H 79.699237 Z"
       style="fill:#f2e6d9;fill-opacity:1;fill-rule:nonzero;stroke:#000000;stroke-width:0.119309;stroke-linecap:butt;stroke-linejoin:miter;stroke-miterlimit:10;stroke-dasharray:none;stroke-opacity:1" />
    <path
       id="path3"
       d="m 88.798769,100.36183 c 0,-0.3142 -0.310058,-0.57051 -0.677995,-0.624254 0.417546,-0.115755 0.578776,-0.355534 0.578776,-0.562239 0,-0.322461 -0.363802,-0.624252 -0.868164,-0.624252 h -0.826822 v 2.484605 h 0.921907 c 0.504362,0 0.872298,-0.32246 0.872298,-0.67386 z m -0.376204,-1.182359 c 0,0.248047 -0.305925,0.454752 -0.686263,0.454752 h -0.44235 v -0.8847 h 0.438216 c 0.384472,0 0.690397,0.190169 0.690397,0.429948 z m 0.09508,1.178219 c 0,0.25218 -0.289388,0.47956 -0.690397,0.47956 h -0.5333 v -0.988053 h 0.475423 c 0.463021,0 0.748274,0.260453 0.748274,0.508493 z m 1.024227,0.678 v -1.591636 h -0.264583 v 1.591636 z m 0.02067,-2.033986 v -0.305925 h -0.310059 v 0.305925 z m 1.774568,2.033986 v -1.079006 c 0,-0.214974 -0.04547,-0.545703 -0.479557,-0.545703 -0.198437,0 -0.37207,0.08682 -0.508496,0.260449 v -0.243912 h -0.252181 v 1.608172 h 0.268718 v -0.89297 c 0,-0.219109 0.08268,-0.516765 0.355533,-0.516765 0.334864,0 0.343132,0.23151 0.343132,0.355534 v 1.054201 z m 1.713591,0 v -1.050067 c 0,-0.343131 -0.243913,-0.591178 -0.578776,-0.591178 -0.214974,0 -0.376205,0.04961 -0.549837,0.148828 l 0.02067,0.235644 c 0.157096,-0.115755 0.322461,-0.177767 0.529167,-0.177767 0.165364,0 0.305924,0.132292 0.305924,0.392741 v 0.148829 c -0.161231,0.004 -0.37207,0.0165 -0.587044,0.0868 -0.239779,0.0827 -0.380339,0.21497 -0.380339,0.39274 0,0.16123 0.09095,0.45062 0.396875,0.45062 0.198438,0 0.446485,-0.0579 0.578776,-0.1695 v 0.13229 z m -0.272852,-0.47956 c 0,0.0703 0,0.1571 -0.115755,0.22738 -0.09922,0.062 -0.219108,0.0744 -0.272851,0.0744 -0.194304,0 -0.326596,-0.10335 -0.326596,-0.23564 0,-0.24392 0.500228,-0.29766 0.715202,-0.29766 z m 1.561662,-0.90537 v -0.239779 c -0.322461,0.0041 -0.51263,0.194303 -0.611849,0.330729 v -0.314192 h -0.243913 v 1.608172 h 0.264584 v -0.78548 c 0,-0.359672 0.268717,-0.595316 0.591178,-0.59945 z m 1.60507,-0.206706 h -0.268718 c -0.165364,0.425814 -0.438216,1.124476 -0.454752,1.384926 h -0.0041 c -0.01654,-0.21084 -0.206705,-0.68626 -0.235644,-0.75654 l -0.252181,-0.628386 h -0.285254 l 0.665593,1.591636 -0.124023,0.32659 c -0.07855,0.17777 -0.132292,0.19431 -0.198438,0.19431 -0.04961,0 -0.165365,-0.008 -0.272852,-0.0537 l 0.02067,0.23565 c 0.02067,0.004 0.14056,0.0289 0.252181,0.0289 0.08682,0 0.256315,0 0.409277,-0.39688 z m -6.276619,5.755716 -0.02067,-0.25218 c -0.09922,0.0744 -0.202571,0.1447 -0.318327,0.18604 -0.115755,0.0331 -0.235644,0.0413 -0.359668,0.0413 -0.227376,0 -0.438216,-0.12816 -0.578776,-0.31006 -0.165364,-0.21084 -0.239778,-0.47956 -0.239778,-0.74827 0,-0.26459 0.07441,-0.5333 0.239778,-0.74414 0.14056,-0.18604 0.3514,-0.31006 0.578776,-0.31006 0.107487,0 0.214974,0.0124 0.318327,0.0413 0.103353,0.0372 0.202572,0.091 0.289388,0.1571 l 0.05374,-0.29766 c -0.107487,-0.0455 -0.214974,-0.0744 -0.326595,-0.0992 -0.107487,-0.0207 -0.223242,-0.0289 -0.334864,-0.0289 -0.305924,0 -0.595312,0.1447 -0.79375,0.37621 -0.223242,0.24804 -0.330729,0.57464 -0.330729,0.90537 0,0.33073 0.107487,0.65732 0.330729,0.9095 0.198438,0.22738 0.487826,0.37621 0.79375,0.37621 0.124024,0 0.248047,-0.008 0.363803,-0.0413 0.124023,-0.0372 0.23151,-0.0951 0.334863,-0.16124 z m 1.823144,-0.62838 c 0,-0.47956 -0.3514,-0.85163 -0.764811,-0.85163 -0.42168,0 -0.768945,0.37621 -0.768945,0.85163 0,0.47129 0.359668,0.82682 0.764811,0.82682 0.42168,0 0.768945,-0.3638 0.768945,-0.82682 z m -0.268717,-0.0331 c 0,0.43821 -0.256315,0.63665 -0.496094,0.63665 -0.256315,0 -0.496094,-0.21497 -0.496094,-0.63665 0,-0.43409 0.268718,-0.60772 0.49196,-0.60772 0.248047,0 0.500228,0.18604 0.500228,0.60772 z m 1.991609,0.82269 V 102.8764 H 92.94942 v 1.04593 c -0.165364,-0.13642 -0.3514,-0.18603 -0.504362,-0.18603 -0.338997,0 -0.620117,0.3638 -0.620117,0.83096 0,0.45888 0.264583,0.83095 0.607715,0.83095 0.132292,0 0.330729,-0.0455 0.51263,-0.21911 v 0.18191 z m -0.268717,-0.42168 c -0.08682,0.15296 -0.214974,0.24391 -0.37207,0.24391 -0.219108,0 -0.475424,-0.1695 -0.475424,-0.61185 0,-0.47956 0.305925,-0.62012 0.512631,-0.62012 0.14056,0 0.252181,0.0703 0.334863,0.19017 z m 2.007113,-0.38448 c 0,-0.15296 -0.0124,-0.37207 -0.128158,-0.56224 -0.144694,-0.24804 -0.396875,-0.27285 -0.500228,-0.27285 -0.384473,0 -0.706933,0.37207 -0.706933,0.83509 0,0.47129 0.343131,0.84336 0.756543,0.84336 0.165364,0 0.363802,-0.0496 0.558105,-0.19017 0,-0.0165 -0.0083,-0.13229 -0.0083,-0.13229 0,0 -0.0124,-0.0827 -0.0124,-0.0992 -0.21084,0.1819 -0.42168,0.20671 -0.529167,0.20671 -0.276986,0 -0.51263,-0.24805 -0.520898,-0.62839 z m -0.21084,-0.1943 h -0.855762 c 0.05788,-0.23978 0.227376,-0.42995 0.438216,-0.42995 0.111621,0 0.359668,0.0538 0.417546,0.42995 z m 0,0"
       style="fill:#000000;fill-opacity:1;fill-rule:nonzero;stroke:none;stroke-width:0.299395"
       aria-label="Binary&#10;Code" />
    <path
       id="path4"
       d="m 117.40192,109.13436 h 24.04619 V 94.816881 h -24.04619 z"
       style="fill:#fffccc;fill-opacity:1;fill-rule:nonzero;stroke:#000000;stroke-width:0.119309;stroke-linecap:butt;stroke-linejoin:miter;stroke-miterlimit:10;stroke-dasharray:none;stroke-opacity:1" />
    <path
       id="path5"
       d="m 126.14016,101.07497 -0.69866,-1.165819 c 0.39274,-0.111621 0.60358,-0.384473 0.60358,-0.649056 0,-0.359668 -0.38448,-0.669726 -0.88884,-0.669726 h -0.84336 v 2.484601 h 0.30179 v -1.13688 h 0.55811 l 0.66146,1.13688 z m -0.3762,-1.814875 c 0,0.223242 -0.19431,0.467155 -0.64493,0.467155 h -0.50436 v -0.938444 h 0.50436 c 0.42995,0 0.64493,0.231511 0.64493,0.471289 z m 1.10587,1.814875 v -2.484601 h -0.30592 v 2.484601 z m 2.07223,-0.67799 c 0,-0.22738 -0.10749,-0.401013 -0.18604,-0.487829 -0.16536,-0.177767 -0.29765,-0.21084 -0.53743,-0.272851 -0.24392,-0.06201 -0.33487,-0.08268 -0.41342,-0.157097 -0.0455,-0.04961 -0.14469,-0.14056 -0.14469,-0.30179 0,-0.219108 0.19844,-0.429948 0.51263,-0.429948 0.30593,0 0.46716,0.119889 0.59531,0.23151 l 0.0538,-0.289388 c -0.1447,-0.07855 -0.3266,-0.173632 -0.64492,-0.173632 -0.47956,0 -0.78962,0.343131 -0.78962,0.702799 0,0.252181 0.15296,0.417546 0.1695,0.434082 0.17777,0.177767 0.29765,0.21084 0.52916,0.268717 0.30179,0.07441 0.3514,0.09095 0.46716,0.206707 0.062,0.0661 0.11575,0.1819 0.11575,0.30592 0,0.24805 -0.2067,0.47543 -0.51263,0.47543 -0.26044,0 -0.54156,-0.10336 -0.7524,-0.29766 l -0.0537,0.28939 c 0.3266,0.21497 0.64079,0.24805 0.80615,0.24805 0.46303,0 0.78549,-0.35554 0.78549,-0.75241 z m 2.25722,0.51676 -0.0207,-0.25218 c -0.0992,0.0744 -0.20257,0.14469 -0.31832,0.18604 -0.11576,0.0331 -0.23565,0.0413 -0.35967,0.0413 -0.22738,0 -0.43822,-0.12816 -0.57878,-0.31006 -0.16536,-0.21084 -0.23978,-0.47956 -0.23978,-0.748277 0,-0.264583 0.0744,-0.533301 0.23978,-0.744141 0.14056,-0.186035 0.3514,-0.310058 0.57878,-0.310058 0.10748,0 0.21497,0.0124 0.31832,0.04134 0.10336,0.03721 0.20258,0.09095 0.28939,0.157096 l 0.0538,-0.297656 c -0.10749,-0.04547 -0.21498,-0.07441 -0.3266,-0.09922 -0.10749,-0.02067 -0.22324,-0.02894 -0.33486,-0.02894 -0.30593,0 -0.59531,0.144694 -0.79375,0.376204 -0.22324,0.248047 -0.33073,0.574642 -0.33073,0.905371 0,0.330731 0.10749,0.657331 0.33073,0.909511 0.19844,0.22737 0.48782,0.3762 0.79375,0.3762 0.12402,0 0.24804,-0.008 0.3638,-0.0413 0.12402,-0.0372 0.23151,-0.0951 0.33486,-0.16123 z m 1.15342,-0.52917 v -0.2067 h -0.93017 v 0.2067 z m 2.4567,-1.794201 h -0.27285 l -0.44649,1.190625 c -0.14056,0.380336 -0.32246,0.851626 -0.35967,1.029396 h -0.004 c -0.0331,-0.15296 -0.14883,-0.45475 -0.23151,-0.68213 l -0.57464,-1.537891 h -0.32246 l 0.94671,2.484601 h 0.32246 z m -13.1992,6.809921 v -2.4846 h -0.30592 v 2.4846 z m 1.84072,0 v -1.07901 c 0,-0.21497 -0.0455,-0.5457 -0.47956,-0.5457 -0.19844,0 -0.37207,0.0868 -0.50849,0.26045 v -0.24391 h -0.25219 v 1.60817 h 0.26872 v -0.89297 c 0,-0.21911 0.0827,-0.51676 0.35554,-0.51676 0.33486,0 0.34313,0.23151 0.34313,0.35553 v 1.0542 z m 1.53996,-0.45475 c 0,-0.18191 -0.11162,-0.29766 -0.12403,-0.3142 -0.13642,-0.13642 -0.24391,-0.15709 -0.45888,-0.20257 -0.1323,-0.0248 -0.3142,-0.0579 -0.3142,-0.23978 0,-0.21911 0.25218,-0.21911 0.29766,-0.21911 0.19017,0 0.339,0.0413 0.50023,0.1323 l 0.0413,-0.23565 c -0.22738,-0.10748 -0.42168,-0.10748 -0.50436,-0.10748 -0.0827,0 -0.57878,0 -0.57878,0.46302 0,0.15709 0.0827,0.26458 0.13643,0.31419 0.13229,0.11162 0.2191,0.12816 0.42994,0.17363 0.11989,0.0248 0.3266,0.0661 0.3266,0.25632 0,0.24804 -0.27699,0.24804 -0.33073,0.24804 -0.14056,0 -0.34727,-0.0413 -0.54157,-0.17776 l -0.0455,0.24391 c 0.0207,0.008 0.26458,0.1571 0.59117,0.1571 0.46303,0 0.57465,-0.28112 0.57465,-0.49196 z m 1.24747,0.3514 -0.0537,-0.20671 c -0.12402,0.11162 -0.25631,0.12402 -0.32246,0.12402 -0.1571,0 -0.17777,-0.1695 -0.17777,-0.29352 v -0.90124 h 0.4961 v -0.21084 h -0.4961 v -0.45061 h -0.24804 v 0.45061 h -0.29766 v 0.21084 h 0.29352 v 0.96325 c 0,0.20671 0.0455,0.45476 0.29353,0.45476 0.23977,0 0.401,-0.0827 0.51263,-0.14056 z m 1.23816,-1.28158 v -0.23978 c -0.32246,0.004 -0.51263,0.1943 -0.61185,0.33073 v -0.31419 h -0.24391 v 1.60817 h 0.26458 v -0.78548 c 0,-0.35967 0.26872,-0.59532 0.59118,-0.59945 z m 1.572,1.38493 v -1.59164 h -0.27285 v 1.02526 c 0,0.27286 -0.19017,0.40515 -0.42168,0.40515 -0.24805,0 -0.27699,-0.0909 -0.27699,-0.25218 v -1.17823 h -0.26871 v 1.19476 c 0,0.25632 0.0827,0.43409 0.3762,0.43409 0.0992,0 0.38034,-0.0207 0.59945,-0.21498 v 0.17777 z m 1.73529,-0.14883 c 0,-0.0124 -0.008,-0.12402 -0.0124,-0.13643 l -0.008,-0.10335 c -0.16536,0.13643 -0.34726,0.20257 -0.5457,0.20257 -0.29766,0 -0.49196,-0.26458 -0.49196,-0.61185 0,-0.29765 0.14469,-0.62425 0.50023,-0.62425 0.23977,0 0.34313,0.0579 0.49609,0.16123 l 0.0413,-0.23151 c -0.2067,-0.12402 -0.32659,-0.14882 -0.53743,-0.14882 -0.49196,0 -0.77308,0.43408 -0.77308,0.84335 0,0.45889 0.33073,0.8351 0.76067,0.8351 0.17364,0 0.37621,-0.0455 0.57051,-0.18604 z m 1.26711,0.0455 -0.0537,-0.20671 c -0.12403,0.11162 -0.25632,0.12402 -0.32246,0.12402 -0.1571,0 -0.17777,-0.1695 -0.17777,-0.29352 v -0.90124 h 0.49609 v -0.21084 h -0.49609 v -0.45061 h -0.24805 v 0.45061 h -0.29765 v 0.21084 h 0.29352 v 0.96325 c 0,0.20671 0.0455,0.45476 0.29352,0.45476 0.23978,0 0.40101,-0.0827 0.51263,-0.14056 z m 0.64699,0.10335 v -1.59164 h -0.26458 v 1.59164 z m 0.0207,-2.03399 v -0.30592 h -0.31006 v 0.30592 z m 1.89859,1.24437 c 0,-0.47955 -0.3514,-0.85162 -0.76481,-0.85162 -0.42168,0 -0.76894,0.3762 -0.76894,0.85162 0,0.47129 0.35966,0.82683 0.76481,0.82683 0.42168,0 0.76894,-0.36381 0.76894,-0.82683 z m -0.26872,-0.0331 c 0,0.43822 -0.25631,0.63665 -0.49609,0.63665 -0.25631,0 -0.49609,-0.21497 -0.49609,-0.63665 0,-0.43408 0.26871,-0.60772 0.49196,-0.60772 0.24804,0 0.50022,0.18604 0.50022,0.60772 z m 1.8986,0.82269 v -1.07901 c 0,-0.21497 -0.0455,-0.5457 -0.47956,-0.5457 -0.19844,0 -0.37207,0.0868 -0.5085,0.26045 v -0.24391 h -0.25218 v 1.60817 h 0.26872 v -0.89297 c 0,-0.21911 0.0827,-0.51676 0.35553,-0.51676 0.33487,0 0.34313,0.23151 0.34313,0.35553 v 1.0542 z m 1.53995,-0.45475 c 0,-0.18191 -0.11162,-0.29766 -0.12402,-0.3142 -0.13643,-0.13642 -0.24391,-0.15709 -0.45889,-0.20257 -0.13229,-0.0248 -0.31419,-0.0579 -0.31419,-0.23978 0,-0.21911 0.25218,-0.21911 0.29766,-0.21911 0.19017,0 0.33899,0.0413 0.50022,0.1323 l 0.0413,-0.23565 c -0.22738,-0.10748 -0.42168,-0.10748 -0.50437,-0.10748 -0.0827,0 -0.57877,0 -0.57877,0.46302 0,0.15709 0.0827,0.26458 0.13642,0.31419 0.1323,0.11162 0.21911,0.12816 0.42995,0.17363 0.11989,0.0248 0.3266,0.0661 0.3266,0.25632 0,0.24804 -0.27699,0.24804 -0.33073,0.24804 -0.14056,0 -0.34727,-0.0413 -0.54157,-0.17776 l -0.0455,0.24391 c 0.0207,0.008 0.26459,0.1571 0.59118,0.1571 0.46302,0 0.57464,-0.28112 0.57464,-0.49196 z m 0,0"
       style="fill:#000000;fill-opacity:1;fill-rule:nonzero;stroke:none;stroke-width:0.299395"
       aria-label="RISC-V&#10;Instructions" />
    <path
       id="path6"
       d="m 155.8849,109.13436 h 23.2659 V 94.816881 h -23.2659 z"
       style="fill:#ffcccc;fill-opacity:1;fill-rule:nonzero;stroke:#000000;stroke-width:0.119309;stroke-linecap:butt;stroke-linejoin:miter;stroke-miterlimit:10;stroke-dasharray:none;stroke-opacity:1" />
    <path
       id="path7"
       d="m 163.52495,101.01709 -0.90123,-2.484604 h -0.3142 l -0.90537,2.484604 h 0.26459 l 0.26458,-0.72761 h 1.00872 l 0.26459,0.72761 z m -0.65732,-0.92604 h -0.85576 l 0.42581,-1.302249 z m 2.42776,0.12815 c 0,-0.442346 -0.23978,-0.826819 -0.57051,-0.826819 -0.10335,0 -0.33486,0.02067 -0.55397,0.198438 v -1.058333 h -0.26458 v 2.484604 h 0.26871 v -0.16123 c 0.16537,0.15709 0.34313,0.19844 0.46716,0.19844 0.339,0 0.65319,-0.34727 0.65319,-0.8351 z m -0.27285,0 c 0,0.46303 -0.29353,0.62012 -0.51263,0.62012 -0.0992,0 -0.1695,-0.0372 -0.23151,-0.0868 -0.0868,-0.0744 -0.10336,-0.14055 -0.10336,-0.20257 v -0.740003 c 0.0661,-0.09922 0.19431,-0.202572 0.37207,-0.202572 0.21498,0 0.47543,0.165365 0.47543,0.611845 z m 1.66088,0.34314 c 0,-0.18191 -0.11162,-0.29766 -0.12403,-0.3142 -0.13642,-0.13642 -0.24391,-0.15709 -0.45888,-0.20257 -0.13229,-0.0248 -0.3142,-0.05788 -0.3142,-0.239777 0,-0.219108 0.25219,-0.219108 0.29766,-0.219108 0.19017,0 0.339,0.04134 0.50023,0.132291 l 0.0413,-0.235644 c -0.22738,-0.107487 -0.42168,-0.107487 -0.50436,-0.107487 -0.0827,0 -0.57878,0 -0.57878,0.463021 0,0.157096 0.0827,0.264584 0.13643,0.314194 0.13229,0.11162 0.21911,0.12816 0.42995,0.17363 0.11988,0.0248 0.32659,0.0662 0.32659,0.25632 0,0.24804 -0.27699,0.24804 -0.33073,0.24804 -0.14056,0 -0.34726,-0.0413 -0.54157,-0.17776 l -0.0455,0.24391 c 0.0207,0.008 0.26458,0.1571 0.59118,0.1571 0.46302,0 0.57464,-0.28112 0.57464,-0.49196 z m 1.24643,0.3514 -0.0537,-0.20671 c -0.12402,0.11162 -0.25632,0.12402 -0.32246,0.12402 -0.1571,0 -0.17777,-0.1695 -0.17777,-0.29352 v -0.901236 h 0.49609 v -0.21084 h -0.49609 v -0.450618 h -0.24805 v 0.450618 h -0.29765 v 0.21084 h 0.29352 v 0.963246 c 0,0.20671 0.0455,0.45476 0.29352,0.45476 0.23978,0 0.40101,-0.0827 0.51263,-0.14056 z m 1.23817,-1.28158 v -0.239779 c -0.32246,0.0041 -0.51263,0.194304 -0.61185,0.330729 v -0.314192 h -0.24391 v 1.608172 h 0.26458 v -0.78548 c 0,-0.359671 0.26872,-0.595316 0.59118,-0.59945 z m 1.49035,1.38493 v -1.050067 c 0,-0.343131 -0.24391,-0.591178 -0.57878,-0.591178 -0.21497,0 -0.3762,0.04961 -0.54984,0.148828 l 0.0207,0.235645 c 0.15709,-0.115756 0.32246,-0.177767 0.52916,-0.177767 0.16537,0 0.30593,0.132291 0.30593,0.39274 v 0.148829 c -0.16123,0.004 -0.37207,0.0165 -0.58705,0.0868 -0.23978,0.0827 -0.38034,0.21497 -0.38034,0.39274 0,0.16123 0.091,0.45062 0.39688,0.45062 0.19844,0 0.44648,-0.0579 0.57877,-0.1695 v 0.13229 z m -0.27285,-0.47956 c 0,0.0703 0,0.1571 -0.11576,0.22738 -0.0992,0.062 -0.21911,0.0744 -0.27285,0.0744 -0.1943,0 -0.3266,-0.10335 -0.3266,-0.23564 0,-0.24392 0.50023,-0.29766 0.71521,-0.29766 z m 1.97197,0.33073 c 0,-0.0124 -0.008,-0.12402 -0.0124,-0.13643 l -0.008,-0.10335 c -0.16537,0.13643 -0.34727,0.20257 -0.54571,0.20257 -0.29765,0 -0.49196,-0.26458 -0.49196,-0.61185 0,-0.297652 0.1447,-0.624247 0.50023,-0.624247 0.23978,0 0.34313,0.05788 0.49609,0.16123 l 0.0413,-0.23151 c -0.20671,-0.124023 -0.3266,-0.148828 -0.53744,-0.148828 -0.49196,0 -0.77308,0.434082 -0.77308,0.843355 0,0.45889 0.33073,0.8351 0.76068,0.8351 0.17363,0 0.3762,-0.0455 0.57051,-0.18604 z m 1.26711,0.0455 -0.0537,-0.20671 c -0.12402,0.11162 -0.25631,0.12402 -0.32246,0.12402 -0.1571,0 -0.17777,-0.1695 -0.17777,-0.29352 v -0.901236 h 0.4961 v -0.21084 h -0.4961 v -0.450618 h -0.24804 v 0.450618 h -0.29766 v 0.21084 h 0.29352 v 0.963246 c 0,0.20671 0.0455,0.45476 0.29352,0.45476 0.23978,0 0.40101,-0.0827 0.51264,-0.14056 z m -11.72745,3.75067 c 0,-0.22738 -0.10749,-0.40101 -0.18604,-0.48782 -0.16536,-0.17777 -0.29766,-0.21084 -0.53743,-0.27286 -0.24392,-0.062 -0.33487,-0.0827 -0.41342,-0.15709 -0.0455,-0.0496 -0.14469,-0.14056 -0.14469,-0.30179 0,-0.21911 0.19844,-0.42995 0.51263,-0.42995 0.30593,0 0.46716,0.11989 0.59531,0.23151 l 0.0538,-0.28939 c -0.1447,-0.0786 -0.3266,-0.17363 -0.64493,-0.17363 -0.47955,0 -0.78961,0.34313 -0.78961,0.7028 0,0.25218 0.15296,0.41754 0.1695,0.43408 0.17776,0.17777 0.29765,0.21084 0.52916,0.26872 0.30179,0.0744 0.3514,0.0909 0.46716,0.2067 0.062,0.0661 0.11575,0.1819 0.11575,0.30593 0,0.24804 -0.2067,0.47542 -0.51263,0.47542 -0.26044,0 -0.54156,-0.10335 -0.7524,-0.29766 l -0.0538,0.28939 c 0.3266,0.21498 0.64079,0.24805 0.80615,0.24805 0.46303,0 0.78549,-0.35553 0.78549,-0.75241 z m 1.65364,-0.12816 c 0,-0.15296 -0.0124,-0.37207 -0.12816,-0.56224 -0.14469,-0.24804 -0.39687,-0.27285 -0.50022,-0.27285 -0.38448,0 -0.70694,0.37207 -0.70694,0.83509 0,0.47129 0.34313,0.84336 0.75655,0.84336 0.16536,0 0.3638,-0.0496 0.5581,-0.19017 0,-0.0165 -0.008,-0.13229 -0.008,-0.13229 0,0 -0.0124,-0.0827 -0.0124,-0.0992 -0.21084,0.1819 -0.42168,0.20671 -0.52917,0.20671 -0.27698,0 -0.51263,-0.24805 -0.52089,-0.62839 z m -0.21084,-0.1943 h -0.85576 c 0.0579,-0.23978 0.22738,-0.42995 0.43822,-0.42995 0.11162,0 0.35966,0.0537 0.41754,0.42995 z m 2.80913,1.00046 v -1.07901 c 0,-0.24391 -0.0661,-0.5457 -0.48369,-0.5457 -0.30592,0 -0.47542,0.21084 -0.52917,0.28939 -0.062,-0.22738 -0.26044,-0.28939 -0.44648,-0.28939 -0.29352,0 -0.44648,0.19017 -0.5085,0.26458 v -0.24805 h -0.25218 v 1.60818 h 0.26872 v -0.89297 c 0,-0.23565 0.0951,-0.51677 0.35553,-0.51677 0.33073,0 0.34727,0.22324 0.34727,0.35554 v 1.0542 h 0.27285 v -0.89297 c 0,-0.23565 0.0951,-0.51677 0.35554,-0.51677 0.32659,0 0.34726,0.22324 0.34726,0.35554 v 1.0542 z m 1.70843,0 v -1.05007 c 0,-0.34313 -0.24392,-0.59118 -0.57878,-0.59118 -0.21497,0 -0.3762,0.0496 -0.54984,0.14883 l 0.0207,0.23564 c 0.1571,-0.11575 0.32246,-0.17776 0.52917,-0.17776 0.16536,0 0.30592,0.13229 0.30592,0.39274 v 0.14883 c -0.16123,0.004 -0.37207,0.0165 -0.58704,0.0868 -0.23978,0.0827 -0.38034,0.21498 -0.38034,0.39274 0,0.16123 0.091,0.45062 0.39688,0.45062 0.19843,0 0.44648,-0.0579 0.57877,-0.1695 v 0.1323 z m -0.27286,-0.47956 c 0,0.0703 0,0.15709 -0.11575,0.22737 -0.0992,0.062 -0.21911,0.0744 -0.27285,0.0744 -0.19431,0 -0.3266,-0.10335 -0.3266,-0.23565 0,-0.24391 0.50023,-0.29765 0.7152,-0.29765 z m 2.03399,0.47956 v -1.07901 c 0,-0.21497 -0.0455,-0.5457 -0.47956,-0.5457 -0.19844,0 -0.37207,0.0868 -0.50849,0.26045 v -0.24392 h -0.25219 v 1.60818 h 0.26872 v -0.89297 c 0,-0.21911 0.0827,-0.51677 0.35554,-0.51677 0.33486,0 0.34313,0.23151 0.34313,0.35554 v 1.0542 z m 1.44487,-0.10336 -0.0537,-0.2067 c -0.12403,0.11162 -0.25632,0.12402 -0.32246,0.12402 -0.1571,0 -0.17777,-0.1695 -0.17777,-0.29352 v -0.90124 h 0.49609 v -0.21084 h -0.49609 v -0.45062 h -0.24805 v 0.45062 h -0.29765 v 0.21084 h 0.29352 v 0.96325 c 0,0.20671 0.0455,0.45475 0.29352,0.45475 0.23978,0 0.40101,-0.0827 0.51263,-0.14056 z m 0.64699,0.10336 v -1.59164 h -0.26458 v 1.59164 z m 0.0207,-2.03399 v -0.30592 h -0.31006 v 0.30592 z m 1.71256,1.88516 c 0,-0.0124 -0.008,-0.12403 -0.0124,-0.13643 l -0.008,-0.10335 c -0.16536,0.13642 -0.34726,0.20257 -0.5457,0.20257 -0.29766,0 -0.49196,-0.26458 -0.49196,-0.61185 0,-0.29765 0.1447,-0.62425 0.50023,-0.62425 0.23978,0 0.34313,0.0579 0.49609,0.16123 l 0.0413,-0.23151 c -0.20671,-0.12402 -0.3266,-0.14883 -0.53744,-0.14883 -0.49196,0 -0.77308,0.43408 -0.77308,0.84336 0,0.45889 0.33073,0.83509 0.76068,0.83509 0.17363,0 0.3762,-0.0455 0.57051,-0.18603 z m 1.36219,-0.30593 c 0,-0.1819 -0.11162,-0.29765 -0.12403,-0.31419 -0.13642,-0.13643 -0.24391,-0.1571 -0.45888,-0.20257 -0.13229,-0.0248 -0.31419,-0.0579 -0.31419,-0.23978 0,-0.21911 0.25218,-0.21911 0.29765,-0.21911 0.19017,0 0.339,0.0413 0.50023,0.13229 l 0.0413,-0.23564 c -0.22738,-0.10749 -0.42168,-0.10749 -0.50436,-0.10749 -0.0827,0 -0.57878,0 -0.57878,0.46302 0,0.1571 0.0827,0.26459 0.13643,0.3142 0.13229,0.11162 0.21911,0.12815 0.42995,0.17363 0.11989,0.0248 0.32659,0.0661 0.32659,0.25631 0,0.24805 -0.27698,0.24805 -0.33073,0.24805 -0.14056,0 -0.34726,-0.0413 -0.54157,-0.17777 l -0.0455,0.24392 c 0.0207,0.008 0.26458,0.15709 0.59118,0.15709 0.46302,0 0.57464,-0.28112 0.57464,-0.49196 z m 0,0"
       style="fill:#000000;fill-opacity:1;fill-rule:nonzero;stroke:none;stroke-width:0.299395"
       aria-label="Abstract&#10;Semantics" />
    <path
       id="path8"
       d="m 222.9973,103.65879 c -0.12403,0 -0.22738,0.0992 -0.22738,0.22738 0,0.12402 0.10335,0.22737 0.22738,0.22737 0.12402,0 0.22737,-0.10335 0.22737,-0.22737 0,-0.12816 -0.10335,-0.22738 -0.22737,-0.22738 z m 0,-1.90272 c -0.12403,0 -0.22738,0.0992 -0.22738,0.22737 0,0.12403 0.10335,0.22738 0.22738,0.22738 0.12402,0 0.22737,-0.10335 0.22737,-0.22738 0,-0.12816 -0.10335,-0.22737 -0.22737,-0.22737 z m 0,-1.906865 c -0.12403,0 -0.22738,0.09922 -0.22738,0.227375 0,0.12403 0.10335,0.22738 0.22738,0.22738 0.12402,0 0.22737,-0.10335 0.22737,-0.22738 0,-0.128156 -0.10335,-0.227375 -0.22737,-0.227375 z m 0,0"
       style="fill:#000000;fill-opacity:1;fill-rule:nonzero;stroke:none;stroke-width:0.299395"
       aria-label="···" />
    <path
       id="path9"
       d="m 211.48443,94.578403 h 23.2659 V 80.260928 h -23.2659 z"
       style="fill:#ccffcc;fill-opacity:1;fill-rule:nonzero;stroke:#000000;stroke-width:0.119309;stroke-linecap:butt;stroke-linejoin:miter;stroke-miterlimit:10;stroke-dasharray:none;stroke-opacity:1" />
    <g
       id="g9"
       aria-label="1stActual&#10;Semantics"
       transform="matrix(0.29939543,0,0,0.29939543,215.68189,86.461544)">
      <path
         id="path10"
         d="m 3.4385391,-7.6623461 c 0,-0.2761641 0,-0.2899724 -0.2347395,-0.2899724 -0.2899724,0.3175888 -0.8837253,0.7732597 -2.1126558,0.7732597 v 0.3452052 c 0.2761641,0 0.8699171,0 1.5327111,-0.3175888 v 6.22750184 c 0,0.42805445 -0.041425,0.57994473 -1.0908485,0.57994473 H 1.1601848 v 0.34520521 c 0.3175888,-0.02761642 1.4774783,-0.02761642 1.8779163,-0.02761642 0.400438,0 1.5465193,0 1.8641081,0.02761642 V -0.34399583 H 4.5293876 c -1.0494239,0 -1.0908485,-0.15189028 -1.0908485,-0.57994473 z m 0,0"
         style="fill:#000000;fill-opacity:1;fill-rule:nonzero;stroke:none" />
      <path
         id="path11"
         d="M 10.380616,-1.5176935 C 10.518698,-2.1252547 10.228725,-2.5118845 10.187301,-2.5671173 9.8420956,-3.0227882 9.4968904,-3.0918292 8.80648,-3.2437195 8.3922338,-3.3265688 7.7984808,-3.4370344 7.9365629,-4.0445956 c 0.1518903,-0.731835 0.994191,-0.731835 1.1460813,-0.731835 0.6351775,0 1.0908488,0.1380821 1.5603278,0.4418627 l 0.317588,-0.7870679 c -0.69041,-0.3590134 -1.3255875,-0.3590134 -1.6017517,-0.3590134 -0.2761641,0 -1.9469573,0 -2.2783543,1.5465193 -0.1104657,0.5247119 0.096658,0.8837253 0.2485477,1.0494238 0.3452052,0.3728216 0.6351776,0.4280544 1.3117798,0.5799447 0.3728216,0.082849 1.0356156,0.2209314 0.9113417,0.8561089 -0.1795067,0.82849251 -1.1184648,0.82849251 -1.2841633,0.82849251 -0.4832873,0 -1.1460813,-0.13808208 -1.6846014,-0.59375291 l -0.331397,0.81468424 c 0.069041,0.0276164 0.7732597,0.52471191 1.8779163,0.52471191 1.5327111,0 2.0988472,-0.93895815 2.2507382,-1.64317675 z m 3.931887,1.17369767 -0.04143,-0.69041037 c -0.497095,0.37282159 -0.952766,0.41424621 -1.159889,0.41424621 -0.524712,0 -0.483287,-0.56613651 -0.400438,-0.98038281 l 0.648986,-3.0101893 h 1.656985 l 0.138082,-0.7042186 h -1.656985 l 0.331397,-1.5050947 h -0.828493 l -0.317589,1.5050947 H 11.67513 l -0.138082,0.7042186 h 0.980383 l -0.69041,3.2173125 c -0.138083,0.69041037 -0.165699,1.51890285 0.662793,1.51890285 0.800877,0 1.408438,-0.27616416 1.822684,-0.46947908 z m 0,0"
         style="fill:#000000;fill-opacity:1;fill-rule:nonzero;stroke:none" />
      <path
         id="path12"
         d="M 25.866521,0.00120938 22.856332,-8.2975237 H 21.806908 L 18.78291,0.00120938 h 0.883726 l 0.883725,-2.43024458 h 3.369203 l 0.883725,2.43024458 z M 23.671016,-3.0918292 h -2.858299 l 1.422245,-4.3495856 z m 7.06635,2.59594309 c 0,-0.0414246 -0.02762,-0.41424625 -0.04142,-0.45567087 l -0.02762,-0.34520522 c -0.552328,0.45567088 -1.159889,0.67660221 -1.822683,0.67660221 -0.994191,0 -1.643177,-0.88372531 -1.643177,-2.04361481 0,-0.994191 0.483287,-2.0850394 1.670793,-2.0850394 0.800876,0 1.146082,0.1933149 1.656985,0.5385201 l 0.138082,-0.7732596 c -0.69041,-0.4142463 -1.090848,-0.4970955 -1.795067,-0.4970955 -1.643176,0 -2.582135,1.4498618 -2.582135,2.8168744 0,1.5327111 1.104657,2.78925805 2.540711,2.78925805 0.579944,0 1.256547,-0.15189029 1.905531,-0.62136936 z m 4.235668,0.15189028 -0.179506,-0.69041037 c -0.414247,0.37282159 -0.856109,0.41424621 -1.077041,0.41424621 -0.524712,0 -0.593753,-0.56613651 -0.593753,-0.98038281 v -3.0101893 h 1.656985 v -0.7042186 h -1.656985 v -1.5050947 h -0.828492 v 1.5050947 h -0.994191 v 0.7042186 h 0.980383 v 3.2173125 c 0,0.69041037 0.15189,1.51890285 0.980382,1.51890285 0.800877,0 1.339397,-0.27616416 1.712218,-0.46947908 z m 5.405914,0.34520521 V -5.3149507 h -0.911342 v 3.4244356 c 0,0.9113417 -0.635178,1.35320436 -1.408437,1.35320436 -0.828493,0 -0.92515,-0.30378058 -0.92515,-0.84230066 v -3.9353393 h -0.897534 v 3.9905721 c 0,0.8561089 0.276164,1.44986185 1.256547,1.44986185 0.331397,0 1.270355,-0.06904104 2.00219,-0.71802682 v 0.59375295 z m 5.723502,0 V -3.5060755 c 0,-1.1460812 -0.814684,-1.9745737 -1.933149,-1.9745737 -0.718027,0 -1.256547,0.1656985 -1.836492,0.4970955 l 0.06904,0.7870678 c 0.524712,-0.3866298 1.07704,-0.5937529 1.767451,-0.5937529 0.552328,0 1.021807,0.4418626 1.021807,1.3117797 v 0.4970955 c -0.53852,0.013808 -1.242739,0.055233 -1.960765,0.2899724 -0.800876,0.2761642 -1.270355,0.7180268 -1.270355,1.3117798 0,0.53852008 0.30378,1.50509465 1.325587,1.50509465 0.662794,0 1.491287,-0.19331492 1.93315,-0.56613653 V 0.00120938 Z M 45.191108,-1.6005428 c 0,0.2347396 0,0.5247119 -0.38663,0.75945148 -0.331397,0.20712313 -0.731835,0.24854775 -0.911341,0.24854775 -0.648986,0 -1.090849,-0.3452052 -1.090849,-0.78706783 0,-0.8146843 1.670793,-0.994191 2.38882,-0.994191 z M 48.74327,0.00120938 V -8.2975237 H 47.859544 V 0.00120938 Z M 6.0586466,12.180049 c 0,-0.759452 -0.3590134,-1.339396 -0.6213694,-1.629369 C 4.8849489,9.9569274 4.4430863,9.8464617 3.6422102,9.6393386 2.8275259,9.4322155 2.5237453,9.3631744 2.2613894,9.1146267 2.1094991,8.9489282 1.7781021,8.6451476 1.7781021,8.1066275 c 0,-0.731835 0.662794,-1.4360536 1.7122178,-1.4360536 1.0218074,0 1.5603275,0.400438 1.988382,0.7732596 L 5.6582086,6.4772589 C 5.1749213,6.214903 4.5673601,5.8973142 3.5041281,5.8973142 c -1.6017521,0 -2.63736772,1.1460813 -2.63736772,2.3473954 0,0.8423007 0.51090372,1.394629 0.56613652,1.4498618 0.593753,0.5937526 0.994191,0.7042186 1.7674506,0.8975336 1.0079992,0.248548 1.1736977,0.303781 1.5603275,0.69041 0.2071232,0.220932 0.3866299,0.607561 0.3866299,1.021808 0,0.828492 -0.6904104,1.587944 -1.7122178,1.587944 -0.8699171,0 -1.8088753,-0.345206 -2.51309389,-0.994191 l -0.1795067,0.966574 c 1.09084839,0.718027 2.14027229,0.828493 2.69260059,0.828493 1.5465193,0 2.6235595,-1.187506 2.6235595,-2.513094 z M 11.58193,11.751994 c 0,-0.510903 -0.04143,-1.242738 -0.428055,-1.8779159 C 10.670588,9.0455856 9.8282874,8.9627364 9.4830822,8.9627364 c -1.2841634,0 -2.3612036,1.2427386 -2.3612036,2.7892576 0,1.574136 1.1460813,2.816875 2.5269021,2.816875 0.5523283,0 1.2151223,-0.165699 1.8641083,-0.635178 0,-0.05523 -0.02762,-0.441862 -0.02762,-0.441862 0,0 -0.04142,-0.276165 -0.04142,-0.331397 -0.704219,0.607561 -1.408437,0.69041 -1.7674509,0.69041 -0.9251499,0 -1.7122178,-0.828492 -1.7398342,-2.098848 z M 10.877711,11.103009 H 8.0194121 c 0.193315,-0.800876 0.7594515,-1.436054 1.4636701,-1.436054 0.3728216,0 1.2013138,0.1795067 1.3946288,1.436054 z m 9.38613,3.341586 v -3.603942 c 0,-0.814685 -0.220932,-1.8226838 -1.615561,-1.8226838 -1.021807,0 -1.587944,0.7042186 -1.76745,0.9665746 -0.207123,-0.7594515 -0.869917,-0.9665746 -1.491287,-0.9665746 -0.980383,0 -1.491286,0.6351776 -1.698409,0.8837253 V 9.0732021 h -0.842301 v 5.3713929 h 0.897533 v -2.982573 c 0,-0.787068 0.317589,-1.726026 1.187506,-1.726026 1.104657,0 1.15989,0.745643 1.15989,1.187506 v 3.521093 h 0.911342 v -2.982573 c 0,-0.787068 0.317588,-1.726026 1.187505,-1.726026 1.090849,0 1.15989,0.745643 1.15989,1.187506 v 3.521093 z m 5.70279,0 V 10.93731 c 0,-1.1460811 -0.814685,-1.9745736 -1.93315,-1.9745736 -0.718026,0 -1.256547,0.1656985 -1.836491,0.4970955 L 22.26603,10.2469 c 0.524712,-0.3866301 1.07704,-0.5937532 1.76745,-0.5937532 0.552329,0 1.021808,0.4418622 1.021808,1.3117802 v 0.497095 c -0.53852,0.01381 -1.242739,0.05523 -1.960766,0.289972 -0.800876,0.276165 -1.270355,0.718027 -1.270355,1.31178 0,0.53852 0.303781,1.505095 1.325588,1.505095 0.662794,0 1.491287,-0.193315 1.933149,-0.566137 v 0.441863 z m -0.911342,-1.601752 c 0,0.234739 0,0.524712 -0.38663,0.759451 -0.331397,0.207123 -0.731835,0.248548 -0.911342,0.248548 -0.648986,0 -1.090848,-0.345205 -1.090848,-0.787068 0,-0.814684 1.670793,-0.994191 2.38882,-0.994191 z m 6.79709,1.601752 v -3.603942 c 0,-0.718027 -0.15189,-1.8226838 -1.601752,-1.8226838 -0.662794,0 -1.242739,0.2899724 -1.69841,0.8699171 V 9.0732021 h -0.8423 v 5.3713929 h 0.897533 v -2.982573 c 0,-0.731835 0.276164,-1.726026 1.187506,-1.726026 1.118465,0 1.146081,0.77326 1.146081,1.187506 v 3.521093 z m 4.825969,-0.345205 -0.179507,-0.690411 c -0.414246,0.372822 -0.856109,0.414247 -1.07704,0.414247 -0.524712,0 -0.593753,-0.566137 -0.593753,-0.980383 V 9.8326535 h 1.656985 V 9.1284349 H 34.828048 V 7.6233402 h -0.828492 v 1.5050947 h -0.994191 v 0.7042186 h 0.980382 v 3.2173125 c 0,0.69041 0.151891,1.518903 0.980383,1.518903 0.800876,0 1.339396,-0.276164 1.712218,-0.469479 z m 2.160984,0.345205 V 9.1284349 h -0.883725 v 5.3161601 z m 0.06904,-6.7936384 V 6.6291492 h -1.035616 v 1.0218074 z m 5.72005,6.2965424 c 0,-0.04142 -0.02762,-0.414246 -0.04143,-0.45567 l -0.02762,-0.345206 c -0.552329,0.455671 -1.15989,0.676603 -1.822684,0.676603 -0.994191,0 -1.643177,-0.883726 -1.643177,-2.043615 0,-0.994191 0.483288,-2.0850396 1.670794,-2.0850396 0.800876,0 1.146081,0.1933149 1.656985,0.5385206 L 44.559383,9.4598319 C 43.868972,9.0455856 43.468534,8.9627364 42.764316,8.9627364 c -1.643177,0 -2.582135,1.4498616 -2.582135,2.8168746 0,1.532711 1.104656,2.789258 2.54071,2.789258 0.579945,0 1.256547,-0.15189 1.905533,-0.62137 z m 4.549804,-1.021807 c 0,-0.607561 -0.372821,-0.994191 -0.414246,-1.049424 -0.455671,-0.455671 -0.814684,-0.524712 -1.532711,-0.676602 -0.441863,-0.08285 -1.049424,-0.193315 -1.049424,-0.800876 0,-0.731835 0.842301,-0.731835 0.994191,-0.731835 0.635178,0 1.132273,0.1380821 1.670793,0.441863 L 48.984913,9.3217498 C 48.225462,8.9627364 47.576476,8.9627364 47.300312,8.9627364 c -0.276164,0 -1.933149,0 -1.933149,1.5465196 0,0.524712 0.276164,0.883725 0.455671,1.049424 0.441862,0.372821 0.731835,0.428054 1.436053,0.579944 0.400438,0.08285 1.090849,0.220932 1.090849,0.856109 0,0.828493 -0.92515,0.828493 -1.104657,0.828493 -0.469479,0 -1.159889,-0.138082 -1.808875,-0.593753 l -0.15189,0.814684 c 0.06904,0.02762 0.883725,0.524712 1.974573,0.524712 1.54652,0 1.919341,-0.938958 1.919341,-1.643177 z m 0,0"
         style="fill:#000000;fill-opacity:1;fill-rule:nonzero;stroke:none" />
    </g>
    <path
       id="path13"
       d="m 211.48443,123.69031 h 23.2659 v -14.31747 h -23.2659 z"
       style="fill:#ccffcc;fill-opacity:1;fill-rule:nonzero;stroke:#000000;stroke-width:0.119309;stroke-linecap:butt;stroke-linejoin:miter;stroke-miterlimit:10;stroke-dasharray:none;stroke-opacity:1" />
    <g
       id="g13"
       aria-label="nthActual&#10;Semantics"
       transform="matrix(0.29939543,0,0,0.29939543,215.28489,115.57356)">
      <path
         id="path14"
         d="m 2.4585684,-3.5081265 c 0.027616,-0.069041 0.331397,-0.662794 0.7732596,-1.0494238 0.3037806,-0.2899724 0.7180269,-0.4832873 1.1875059,-0.4832873 0.4694791,0 0.6351776,0.3590134 0.6351776,0.8423007 0,0.6766022 -0.4832873,2.0436148 -0.731835,2.6926006 -0.096658,0.2899723 -0.1656985,0.4418626 -0.1656985,0.66279396 0,0.5247119 0.3728216,0.96657456 0.9527663,0.96657456 1.1046567,0 1.5327111,-1.76745062 1.5327111,-1.83649172 0,-0.055233 -0.055233,-0.1104656 -0.1242739,-0.1104656 -0.1104656,0 -0.1242738,0.041425 -0.1795067,0.2485477 -0.2761641,0.9803828 -0.731835,1.44986187 -1.2013141,1.44986187 -0.1104656,0 -0.3037805,-0.0138082 -0.3037805,-0.38662982 0,-0.30378058 0.1242738,-0.66279395 0.2071231,-0.82849245 0.2347395,-0.662794 0.731835,-2.0021902 0.731835,-2.6787924 0,-0.7180268 -0.4142462,-1.2565469 -1.325588,-1.2565469 -1.063232,0 -1.6293685,0.7594514 -1.8364916,1.0494238 -0.041425,-0.6766022 -0.5247119,-1.0494238 -1.0494238,-1.0494238 -0.3866299,0 -0.64898582,0.2347395 -0.85610894,0.6351775 -0.20712312,0.4280545 -0.38662982,1.1460813 -0.38662982,1.2013141 0,0.041425 0.0552328,0.096658 0.13808208,0.096658 0.0966574,0 0.11046566,0 0.1795067,-0.2761642 0.19331491,-0.731835 0.40043808,-1.4222454 0.88372528,-1.4222454 0.2761642,0 0.3728217,0.1933149 0.3728217,0.5523283 0,0.262356 -0.1242739,0.7318351 -0.2071232,1.1046567 l -0.331397,1.2841633 c -0.055233,0.2347396 -0.1795067,0.7732597 -0.2347395,0.9803828 -0.096657,0.31758878 -0.22093133,0.88372531 -0.22093133,0.93895814 0,0.1656985 0.12427383,0.30378058 0.30378063,0.30378058 0.1518902,0 0.3175887,-0.08284925 0.4142462,-0.26235595 0.027616,-0.0552328 0.1242739,-0.46947908 0.1933149,-0.70421861 l 0.262356,-1.07704026 z m 0,0"
         style="fill:#000000;fill-opacity:1;fill-rule:nonzero;stroke:none" />
      <path
         id="path15"
         d="M 10.964425,-0.34604686 10.923,-1.0364573 c -0.497096,0.37282166 -0.9527664,0.41424628 -1.1598896,0.41424628 -0.5247119,0 -0.4832872,-0.56613648 -0.400438,-0.98038278 l 0.6489856,-3.0101893 h 1.656985 l 0.138082,-0.7042186 H 10.14974 l 0.331397,-1.5050947 H 9.6526448 L 9.335056,-5.3170017 H 8.3270568 l -0.1380821,0.7042186 h 0.9803828 l -0.6904104,3.2173124 c -0.1380821,0.69041044 -0.1656985,1.51890292 0.662794,1.51890292 0.800876,0 1.4084369,-0.27616416 1.8226839,-0.46947908 z M 16.287489,-8.416541e-4 17.060748,-3.604784 c 0.151891,-0.7180268 0.220932,-1.8226834 -1.22893,-1.8226834 -0.814684,0 -1.46367,0.4694791 -1.822684,0.8284925 l 0.787068,-3.7005998 H 13.912477 L 12.145026,-8.416541e-4 H 13.04256 L 13.677737,-2.9834146 c 0.165699,-0.731835 0.648986,-1.726026 1.560328,-1.726026 1.118465,0 0.980383,0.7732597 0.883725,1.1875059 l -0.745643,3.5210930459 z m 0,0"
         style="fill:#000000;fill-opacity:1;fill-rule:nonzero;stroke:none" />
      <path
         id="path16"
         d="M 28.521561,-8.416541e-4 25.511372,-8.2995747 H 24.461948 L 21.43795,-8.416541e-4 h 0.883726 L 23.205401,-2.4310863 h 3.369203 l 0.883725,2.4302446459 z M 26.326056,-3.0938803 h -2.858299 l 1.422245,-4.3495855 z m 7.06635,2.59594316 c 0,-0.0414246 -0.02762,-0.41424624 -0.04142,-0.45567087 l -0.02762,-0.34520519 c -0.552328,0.45567086 -1.159889,0.67660218 -1.822683,0.67660218 -0.994191,0 -1.643177,-0.88372528 -1.643177,-2.04361478 0,-0.994191 0.483287,-2.0850394 1.670793,-2.0850394 0.800876,0 1.146082,0.1933149 1.656985,0.5385201 l 0.138082,-0.7732597 c -0.69041,-0.4142462 -1.090848,-0.4970954 -1.795067,-0.4970954 -1.643176,0 -2.582135,1.4498618 -2.582135,2.8168744 0,1.5327111 1.104657,2.78925802 2.540711,2.78925802 0.579944,0 1.256547,-0.15189029 1.905531,-0.62136936 z m 4.232216,0.15189028 -0.179506,-0.69041044 c -0.414247,0.37282166 -0.856109,0.41424628 -1.077041,0.41424628 -0.524712,0 -0.593753,-0.56613648 -0.593753,-0.98038278 v -3.0101893 h 1.656985 V -5.3170017 H 35.774322 V -6.8220964 H 34.94583 v 1.5050947 h -0.994191 v 0.7042186 h 0.980383 v 3.2173124 c 0,0.69041044 0.15189,1.51890292 0.980382,1.51890292 0.800876,0 1.339397,-0.27616416 1.712218,-0.46947908 z m 5.405914,0.3452052059 V -5.3170017 h -0.911342 v 3.4244355 c 0,0.91134178 -0.635178,1.35320443 -1.408437,1.35320443 -0.828493,0 -0.92515,-0.30378057 -0.92515,-0.84230073 v -3.9353392 h -0.897534 v 3.9905721 c 0,0.85610887 0.276164,1.44986182 1.256547,1.44986182 0.331397,0 1.270355,-0.06904104 2.00219,-0.71802682 v 0.5937529459 z m 5.726954,0 V -3.5081265 c 0,-1.1460813 -0.814684,-1.9745737 -1.933149,-1.9745737 -0.718027,0 -1.256547,0.1656985 -1.836492,0.4970954 l 0.06904,0.7870679 c 0.524712,-0.3866298 1.07704,-0.5937529 1.767451,-0.5937529 0.552328,0 1.021807,0.4418626 1.021807,1.3117797 v 0.4970955 c -0.53852,0.013808 -1.242739,0.055233 -1.960765,0.2899724 -0.800876,0.2761641 -1.270355,0.7180268 -1.270355,1.3117797 0,0.53852016 0.30378,1.50509472 1.325588,1.50509472 0.662793,0 1.491286,-0.19331491 1.933149,-0.56613653 V -8.416541e-4 Z M 47.846148,-1.6025938 c 0,0.2347395 0,0.5247119 -0.38663,0.75945146 -0.331397,0.20712312 -0.731835,0.24854774 -0.911341,0.24854774 -0.648986,0 -1.090849,-0.3452052 -1.090849,-0.7870679 0,-0.8146842 1.670793,-0.9941909 2.38882,-0.9941909 z m 3.54871,1.6017521459 V -8.2995747 H 50.511132 V -8.416541e-4 Z M 7.3846466,12.18145 c 0,-0.759452 -0.3590134,-1.339396 -0.6213694,-1.629369 C 6.2109489,9.9583284 5.7690863,9.8478627 4.9682102,9.6407396 4.1535259,9.4336165 3.8497453,9.3645754 3.5873894,9.1160277 3.4354991,8.9503292 3.1041021,8.6465486 3.1041021,8.1080285 c 0,-0.731835 0.662794,-1.4360536 1.7122178,-1.4360536 1.0218074,0 1.5603275,0.400438 1.988382,0.7732596 L 6.9842086,6.47866 C 6.5009213,6.216304 5.8933601,5.8987152 4.8301281,5.8987152 c -1.6017521,0 -2.6373677,1.1460813 -2.6373677,2.3473954 0,0.8423007 0.5109037,1.394629 0.5661365,1.4498618 0.593753,0.5937526 0.994191,0.7042186 1.7674506,0.8975336 1.0079992,0.248548 1.1736977,0.303781 1.5603275,0.69041 0.2071232,0.220932 0.3866299,0.607562 0.3866299,1.021808 0,0.828492 -0.6904104,1.587944 -1.7122178,1.587944 -0.8699171,0 -1.8088753,-0.345206 -2.5130939,-0.994191 l -0.1795067,0.966574 c 1.0908484,0.718027 2.1402723,0.828493 2.6926006,0.828493 1.5465193,0 2.6235595,-1.187506 2.6235595,-2.513094 z M 12.90793,11.753395 c 0,-0.510903 -0.04143,-1.242738 -0.428055,-1.8779159 -0.483287,-0.8284924 -1.325588,-0.9113417 -1.670793,-0.9113417 -1.2841632,0 -2.3612034,1.2427386 -2.3612034,2.7892576 0,1.574136 1.1460813,2.816875 2.5269024,2.816875 0.552328,0 1.215122,-0.165699 1.864108,-0.635178 0,-0.05523 -0.02762,-0.441862 -0.02762,-0.441862 0,0 -0.04142,-0.276165 -0.04142,-0.331397 -0.704219,0.607561 -1.408437,0.69041 -1.767451,0.69041 -0.92515,0 -1.7122177,-0.828492 -1.7398341,-2.098848 z M 12.203711,11.10441 H 9.3454121 c 0.193315,-0.800876 0.7594519,-1.436054 1.4636699,-1.436054 0.372822,0 1.201314,0.1795067 1.394629,1.436054 z m 9.38613,3.341586 v -3.603942 c 0,-0.814685 -0.220932,-1.8226838 -1.615561,-1.8226838 -1.021807,0 -1.587944,0.7042187 -1.76745,0.9665746 -0.207123,-0.7594514 -0.869917,-0.9665746 -1.491287,-0.9665746 -0.980383,0 -1.491286,0.6351776 -1.698409,0.8837254 V 9.0746031 h -0.842301 v 5.3713929 h 0.897533 v -2.982573 c 0,-0.787068 0.317589,-1.7260259 1.187506,-1.7260259 1.104657,0 1.15989,0.7456429 1.15989,1.1875059 v 3.521093 h 0.911342 v -2.982573 c 0,-0.787068 0.317588,-1.7260259 1.187505,-1.7260259 1.090849,0 1.15989,0.7456429 1.15989,1.1875059 v 3.521093 z m 5.70279,0 v -3.507285 c 0,-1.1460811 -0.814685,-1.9745736 -1.93315,-1.9745736 -0.718026,0 -1.256547,0.1656985 -1.836491,0.4970955 l 0.06904,0.7870681 c 0.524712,-0.3866301 1.07704,-0.5937532 1.76745,-0.5937532 0.552329,0 1.021808,0.4418622 1.021808,1.3117802 v 0.497095 c -0.53852,0.01381 -1.242739,0.05523 -1.960766,0.289972 -0.800876,0.276165 -1.270355,0.718027 -1.270355,1.31178 0,0.53852 0.303781,1.505095 1.325588,1.505095 0.662794,0 1.491287,-0.193315 1.933149,-0.566137 v 0.441863 z m -0.911342,-1.601752 c 0,0.234739 0,0.524712 -0.38663,0.759451 -0.331397,0.207123 -0.731835,0.248548 -0.911342,0.248548 -0.648986,0 -1.090848,-0.345205 -1.090848,-0.787068 0,-0.814684 1.670793,-0.994191 2.38882,-0.994191 z m 6.79709,1.601752 v -3.603942 c 0,-0.718027 -0.15189,-1.8226838 -1.601752,-1.8226838 -0.662794,0 -1.242739,0.2899724 -1.69841,0.8699172 V 9.0746031 h -0.8423 v 5.3713929 h 0.897533 v -2.982573 c 0,-0.731835 0.276164,-1.7260259 1.187506,-1.7260259 1.118465,0 1.146081,0.7732599 1.146081,1.1875059 v 3.521093 z m 4.825969,-0.345205 -0.179507,-0.690411 c -0.414246,0.372822 -0.856109,0.414247 -1.07704,0.414247 -0.524712,0 -0.593753,-0.566137 -0.593753,-0.980383 V 9.8340545 h 1.656985 V 9.1298359 H 36.154048 V 7.6247412 h -0.828492 v 1.5050947 h -0.994191 v 0.7042186 h 0.980382 v 3.2173125 c 0,0.69041 0.151891,1.518903 0.980383,1.518903 0.800876,0 1.339396,-0.276164 1.712218,-0.469479 z m 2.160984,0.345205 V 9.1298359 h -0.883725 v 5.3161601 z m 0.06904,-6.7936383 V 6.6305503 h -1.035616 v 1.0218074 z m 5.72005,6.2965433 c 0,-0.04142 -0.02762,-0.414247 -0.04143,-0.455671 l -0.02762,-0.345206 c -0.552329,0.455671 -1.15989,0.676603 -1.822684,0.676603 -0.994191,0 -1.643177,-0.883726 -1.643177,-2.043615 0,-0.994191 0.483288,-2.0850396 1.670794,-2.0850396 0.800876,0 1.146081,0.193315 1.656985,0.5385206 L 45.885383,9.4612329 C 45.194972,9.0469867 44.794534,8.9641374 44.090316,8.9641374 c -1.643177,0 -2.582135,1.4498616 -2.582135,2.8168746 0,1.532711 1.104656,2.789258 2.54071,2.789258 0.579945,0 1.256547,-0.15189 1.905533,-0.621369 z m 4.549804,-1.021808 c 0,-0.607561 -0.372821,-0.994191 -0.414246,-1.049424 -0.455671,-0.455671 -0.814684,-0.524712 -1.532711,-0.676602 -0.441863,-0.08285 -1.049424,-0.193315 -1.049424,-0.800876 0,-0.731835 0.842301,-0.731835 0.994191,-0.731835 0.635178,0 1.132273,0.1380821 1.670793,0.441863 L 50.310913,9.3231508 C 49.551462,8.9641374 48.902476,8.9641374 48.626312,8.9641374 c -0.276164,0 -1.933149,0 -1.933149,1.5465196 0,0.524712 0.276164,0.883725 0.455671,1.049424 0.441862,0.372821 0.731835,0.428054 1.436053,0.579944 0.400438,0.08285 1.090849,0.220932 1.090849,0.856109 0,0.828493 -0.92515,0.828493 -1.104657,0.828493 -0.469479,0 -1.159889,-0.138082 -1.808875,-0.593753 l -0.15189,0.814684 c 0.06904,0.02762 0.883725,0.524712 1.974573,0.524712 1.54652,0 1.919341,-0.938958 1.919341,-1.643177 z m 0,0"
         style="fill:#000000;fill-opacity:1;fill-rule:nonzero;stroke:none" />
    </g>
    <path
       id="path17"
       d="m 103.02479,101.97562 h 12.46758"
       style="fill:none;stroke:#000000;stroke-width:0.119309;stroke-linecap:butt;stroke-linejoin:miter;stroke-miterlimit:10;stroke-dasharray:none;stroke-opacity:1" />
    <path
       id="path18"
       d="m 117.20476,101.97562 c -0.21029,-0.0953 -1.13466,-0.63499 -1.71239,-1.22235 v 2.4447 c 0.57773,-0.58736 1.5021,-1.1271 1.71239,-1.22235 z"
       style="fill:#000000;fill-opacity:1;fill-rule:nonzero;stroke:#000000;stroke-width:0.119309;stroke-linecap:butt;stroke-linejoin:miter;stroke-miterlimit:10;stroke-dasharray:none;stroke-opacity:1" />
    <path
       id="path19"
       d="m 107.50977,97.111384 0.44235,-2.067057 h -0.26872 l -0.43821,2.067057 z m 1.5813,0 0.18603,-0.888834 c 0.0413,-0.194304 0.0579,-0.467155 -0.30592,-0.467155 -0.26872,0 -0.45889,0.202571 -0.47956,0.227376 l 0.0455,-0.21084 h -0.21498 l -0.28938,1.339453 h 0.23564 l 0.15296,-0.731738 c 0.0413,-0.194303 0.1695,-0.44235 0.39688,-0.44235 0.28525,0 0.24391,0.21084 0.22324,0.305924 l -0.18604,0.868164 z m 1.39733,-0.380338 c 0.0372,-0.165365 -0.0537,-0.264584 -0.0579,-0.276986 -0.0951,-0.103353 -0.1695,-0.119889 -0.31419,-0.148828 -0.1571,-0.03307 -0.28525,-0.06201 -0.25632,-0.206706 0.0372,-0.186035 0.25218,-0.186035 0.29353,-0.186035 0.0951,0 0.25218,0.0124 0.39687,0.115755 l 0.0786,-0.194303 c -0.14056,-0.07441 -0.25632,-0.09509 -0.40928,-0.09509 -0.0744,0 -0.49609,0 -0.57877,0.388607 -0.0289,0.144694 0.0372,0.239779 0.0992,0.297656 0.0785,0.06615 0.14056,0.07855 0.29766,0.111621 0.10335,0.02067 0.26872,0.05788 0.23565,0.214974 -0.0455,0.206706 -0.28112,0.206706 -0.32247,0.206706 -0.24391,0 -0.38447,-0.111621 -0.43408,-0.148828 l -0.0786,0.202572 c 0.0868,0.04961 0.23151,0.132291 0.47543,0.132291 0.0537,0 0.21911,0 0.3638,-0.09508 0.11162,-0.07028 0.18603,-0.19017 0.21084,-0.318327 z m 0.99735,0.30179 -0.0124,-0.177767 c -0.0909,0.06201 -0.1943,0.09922 -0.28939,0.09922 -0.11162,0 -0.13229,-0.09095 -0.0992,-0.248047 l 0.1571,-0.74414 h 0.42168 l 0.0372,-0.173633 h -0.42168 l 0.0786,-0.380339 h -0.20258 l -0.0827,0.380339 h -0.26045 l -0.0331,0.173633 h 0.24805 l -0.1695,0.793749 c -0.0331,0.177767 -0.0372,0.388607 0.1695,0.388607 0.2067,0 0.3762,-0.07441 0.45888,-0.111621 z m 1.28778,-1.079004 0.0455,-0.198437 c -0.26872,0.0041 -0.46302,0.148828 -0.58705,0.285254 l 0.062,-0.268718 h -0.21084 l -0.28525,1.339453 h 0.22324 l 0.13643,-0.636653 c 0.0661,-0.297657 0.32246,-0.51263 0.61598,-0.520899 z m 0.33796,1.157552 0.0537,-0.248047 h -0.24805 l -0.0537,0.248047 z m -5.86424,2.562118 c 0.12816,-0.578776 -0.17363,-1.050065 -0.68626,-1.050065 h -0.78135 l -0.44235,2.067053 h 0.78548 c 0.50437,0 1.00873,-0.45475 1.12448,-1.016988 z m -0.25631,0 c -0.10749,0.508498 -0.48783,0.851628 -0.90537,0.851628 h -0.45476 l 0.36794,-1.736329 h 0.45889 c 0.41754,0 0.64905,0.359668 0.5333,0.884701 z m 1.58646,0.363798 c 0.0207,-0.09922 0.0662,-0.322457 -0.0124,-0.504358 -0.0827,-0.181901 -0.25631,-0.214974 -0.3638,-0.214974 -0.33073,0 -0.66973,0.314193 -0.74827,0.698662 -0.0827,0.39274 0.13642,0.70694 0.49609,0.70694 0.18603,0 0.37207,-0.0703 0.50436,-0.1571 l 0.0248,-0.19017 c -0.22325,0.15296 -0.42168,0.16537 -0.48783,0.16537 -0.23978,0 -0.38447,-0.21084 -0.33073,-0.50437 z m -0.13642,-0.165361 h -0.73587 c 0.0951,-0.223242 0.28525,-0.37207 0.45475,-0.37207 0.1571,0 0.30179,0.09922 0.28112,0.37207 z m 1.35392,0.698661 0.0207,-0.19843 c -0.17776,0.11989 -0.34726,0.16123 -0.50023,0.16123 -0.24804,0 -0.3638,-0.21498 -0.30592,-0.5085 0.0496,-0.231509 0.21911,-0.516763 0.53743,-0.516763 0.15297,0 0.25219,0.02481 0.39275,0.128158 l 0.0785,-0.19017 c -0.15709,-0.103352 -0.25218,-0.128157 -0.43408,-0.128157 -0.41341,0 -0.73174,0.359668 -0.80615,0.711072 -0.0786,0.36793 0.12402,0.69453 0.49609,0.69453 0.16123,0 0.33487,-0.0413 0.5209,-0.15297 z m 1.5968,-0.53743 c 0.0827,-0.396875 -0.14469,-0.715202 -0.50022,-0.715202 -0.36794,0 -0.72347,0.326595 -0.80616,0.715202 -0.0868,0.39687 0.1571,0.6904 0.50437,0.6904 0.35966,0 0.71933,-0.30179 0.80201,-0.6904 z m -0.22737,-0.0289 c -0.0744,0.3514 -0.3142,0.52917 -0.53744,0.52917 -0.20257,0 -0.38447,-0.1695 -0.30592,-0.52917 0.0785,-0.359667 0.33486,-0.504361 0.52916,-0.504361 0.20671,0 0.38861,0.152962 0.3142,0.504361 z m 1.55856,0.68626 0.44235,-2.067053 H 112.942 l -0.19017,0.876432 c -0.13229,-0.132292 -0.28939,-0.165365 -0.39688,-0.165365 -0.29765,0 -0.59531,0.310059 -0.67799,0.694536 -0.0827,0.3886 0.0827,0.69453 0.36793,0.69453 0.0951,0 0.27699,-0.0289 0.47956,-0.18604 l -0.0331,0.15296 z m -0.1447,-0.41341 c -0.008,0.0413 -0.0207,0.0951 -0.13642,0.1819 -0.0827,0.0579 -0.16123,0.0827 -0.23978,0.0827 -0.1819,0 -0.37207,-0.14056 -0.29352,-0.5085 0.0827,-0.396875 0.36793,-0.516765 0.54157,-0.516765 0.13642,0 0.21084,0.07028 0.25631,0.165365 z m 1.76527,-0.23978 c 0.0207,-0.09922 0.0662,-0.322457 -0.0124,-0.504358 -0.0827,-0.181901 -0.25632,-0.214974 -0.3638,-0.214974 -0.33073,0 -0.66973,0.314193 -0.74828,0.698662 -0.0827,0.39274 0.13643,0.70694 0.4961,0.70694 0.18603,0 0.37207,-0.0703 0.50436,-0.1571 l 0.0248,-0.19017 c -0.22324,0.15296 -0.42168,0.16537 -0.48782,0.16537 -0.23978,0 -0.38448,-0.21084 -0.33073,-0.50437 z m -0.13642,-0.165361 h -0.73588 c 0.0951,-0.223242 0.28526,-0.37207 0.45476,-0.37207 0.15709,0 0.30179,0.09922 0.28112,0.37207 z m 1.30741,-0.338997 0.0455,-0.198438 c -0.26871,0.0041 -0.46302,0.148828 -0.58704,0.285254 l 0.062,-0.268717 h -0.21084 l -0.28525,1.339449 h 0.22324 l 0.13643,-0.63665 c 0.0661,-0.297656 0.32246,-0.51263 0.61598,-0.520898 z m 0,0"
       style="fill:#000000;fill-opacity:1;fill-rule:nonzero;stroke:none;stroke-width:0.299395"
       aria-label="Instr.&#10;Decoder" />
    <path
       id="path20"
       d="m 141.50777,101.97562 h 12.46758"
       style="fill:none;stroke:#000000;stroke-width:0.119309;stroke-linecap:butt;stroke-linejoin:miter;stroke-miterlimit:10;stroke-dasharray:none;stroke-opacity:1" />
    <path
       id="path21"
       d="m 155.68775,101.97562 c -0.21029,-0.0953 -1.13466,-0.63499 -1.71239,-1.22235 v 2.4447 c 0.57773,-0.58736 1.5021,-1.1271 1.71239,-1.22235 z"
       style="fill:#000000;fill-opacity:1;fill-rule:nonzero;stroke:#000000;stroke-width:0.119309;stroke-linecap:butt;stroke-linejoin:miter;stroke-miterlimit:10;stroke-dasharray:none;stroke-opacity:1" />
    <path
       id="path22"
       d="m 146.35184,95.246899 0.0413,-0.194304 h -1.28571 l -0.43821,2.058789 h 0.26458 l 0.19844,-0.938444 h 0.90124 l 0.0372,-0.181901 h -0.8971 l 0.1571,-0.748274 h 0.3886 c 0.0372,0 0.0744,0.0041 0.10749,0.0041 z m 1.19063,1.207161 c 0.0827,-0.396875 -0.1447,-0.715202 -0.50023,-0.715202 -0.36794,0 -0.72347,0.326595 -0.80615,0.715202 -0.0868,0.396875 0.15709,0.690397 0.50436,0.690397 0.35967,0 0.71933,-0.30179 0.80202,-0.690397 z m -0.22738,-0.02894 c -0.0744,0.3514 -0.31419,0.529167 -0.53743,0.529167 -0.20258,0 -0.38448,-0.169499 -0.30593,-0.529167 0.0785,-0.359668 0.33486,-0.504362 0.52917,-0.504362 0.2067,0 0.38861,0.152963 0.31419,0.504362 z m 1.31672,-0.471289 0.0455,-0.198437 c -0.26872,0.0041 -0.46302,0.148828 -0.58704,0.285254 l 0.062,-0.268718 h -0.21084 l -0.28525,1.339453 h 0.22324 l 0.13642,-0.636653 c 0.0662,-0.297656 0.32246,-0.51263 0.61599,-0.520899 z m 1.92546,1.157552 0.18604,-0.888834 c 0.0455,-0.198438 0.0537,-0.467155 -0.30593,-0.467155 -0.17777,0 -0.3514,0.08268 -0.49609,0.243913 -0.0289,-0.227377 -0.23151,-0.243913 -0.3266,-0.243913 -0.21497,0 -0.38447,0.124023 -0.48782,0.227376 l 0.0496,-0.21084 h -0.21498 l -0.28939,1.339453 h 0.23565 l 0.15296,-0.731738 c 0.0455,-0.202571 0.17777,-0.44235 0.39688,-0.44235 0.27698,0 0.25218,0.194303 0.22737,0.305924 l -0.18603,0.868164 h 0.23151 l 0.15709,-0.731738 c 0.0455,-0.202571 0.17364,-0.44235 0.39688,-0.44235 0.27698,0 0.24805,0.194303 0.22737,0.305924 l -0.18603,0.868164 z m 1.46348,0 0.1819,-0.859895 c 0.0661,-0.305925 -0.10749,-0.512631 -0.38034,-0.512631 -0.1943,0 -0.339,0.04548 -0.49609,0.128158 l -0.0248,0.194303 c 0.17777,-0.107487 0.33486,-0.148828 0.47956,-0.148828 0.14056,0 0.23564,0.11989 0.19017,0.338998 l -0.0289,0.128157 c -0.44649,0.0083 -0.85163,0.132292 -0.90951,0.396875 -0.0248,0.128158 0.004,0.367936 0.26459,0.367936 0.0413,0 0.32246,-0.0083 0.52503,-0.14056 l -0.0248,0.107487 z m -0.14883,-0.392741 c -0.0124,0.05788 -0.0289,0.132292 -0.14056,0.186036 -0.0992,0.05374 -0.21084,0.05788 -0.24391,0.05788 -0.1447,0 -0.26459,-0.07028 -0.23978,-0.194303 0.0455,-0.206706 0.5333,-0.227376 0.66146,-0.235645 z m 0.82682,0.392741 0.44235,-2.067057 h -0.22324 l -0.44235,2.067057 z m -5.60792,3.579107 0.44235,-2.067054 h -0.339 l -0.60772,1.008724 c -0.16123,0.272851 -0.3762,0.64079 -0.44235,0.78135 -0.004,-0.062 -0.0165,-0.17363 -0.0331,-0.29766 l -0.20671,-1.236099 -0.0455,-0.256315 h -0.33486 l -0.44235,2.067054 h 0.23151 l 0.39687,-1.847946 c 0,0.09508 0.0496,0.421679 0.0827,0.624251 l 0.19431,1.157555 h 0.2191 l 0.61599,-1.037666 0.22324,-0.376204 c 0.0496,-0.08682 0.17363,-0.30179 0.20257,-0.37207 l 0.004,0.0041 -0.39275,1.84795 z m 1.84174,-0.65732 c 0.0827,-0.396876 -0.14469,-0.715203 -0.50022,-0.715203 -0.36794,0 -0.72347,0.326595 -0.80616,0.715203 -0.0868,0.39687 0.1571,0.6904 0.50436,0.6904 0.35967,0 0.71934,-0.30179 0.80202,-0.6904 z m -0.22737,-0.0289 c -0.0744,0.3514 -0.3142,0.52917 -0.53744,0.52917 -0.20257,0 -0.38447,-0.1695 -0.30592,-0.52917 0.0786,-0.359668 0.33486,-0.504362 0.52916,-0.504362 0.20671,0 0.38861,0.152962 0.3142,0.504362 z m 1.55856,0.68626 0.44235,-2.067054 h -0.22324 l -0.19017,0.876432 c -0.13229,-0.132292 -0.28939,-0.165365 -0.39688,-0.165365 -0.29765,0 -0.59531,0.310059 -0.67799,0.694537 -0.0827,0.3886 0.0827,0.69453 0.36793,0.69453 0.0951,0 0.27699,-0.0289 0.47956,-0.18604 l -0.0331,0.15296 z m -0.1447,-0.41341 c -0.008,0.0413 -0.0207,0.0951 -0.13642,0.1819 -0.0827,0.0579 -0.16123,0.0827 -0.23978,0.0827 -0.1819,0 -0.37207,-0.14056 -0.29352,-0.5085 0.0827,-0.396876 0.36793,-0.516766 0.54157,-0.516766 0.13642,0 0.21084,0.07028 0.25631,0.165365 z m 1.76527,-0.23978 c 0.0207,-0.09922 0.0661,-0.322458 -0.0124,-0.504359 -0.0827,-0.181901 -0.25632,-0.214974 -0.3638,-0.214974 -0.33073,0 -0.66973,0.314193 -0.74828,0.698663 -0.0827,0.39274 0.13643,0.70694 0.4961,0.70694 0.18603,0 0.37207,-0.0703 0.50436,-0.1571 l 0.0248,-0.19017 c -0.22324,0.15296 -0.42168,0.16537 -0.48782,0.16537 -0.23978,0 -0.38448,-0.21084 -0.33073,-0.50437 z m -0.13642,-0.165362 h -0.73588 c 0.0951,-0.223242 0.28526,-0.37207 0.45476,-0.37207 0.15709,0 0.30179,0.09922 0.28112,0.37207 z m 0.55087,0.818552 0.44235,-2.067054 h -0.22325 l -0.44235,2.067054 z m 0,0"
       style="fill:#000000;fill-opacity:1;fill-rule:nonzero;stroke:none;stroke-width:0.299395"
       aria-label="Formal&#10;Model" />
    <path
       id="path23"
       d="m 179.21046,94.757226 8.94842,-7.337562 h 21.416"
       style="fill:none;stroke:#000000;stroke-width:0.119309;stroke-linecap:butt;stroke-linejoin:miter;stroke-miterlimit:10;stroke-dasharray:none;stroke-opacity:1" />
    <path
       id="path24"
       d="m 211.28727,87.419659 c -0.21029,-0.09525 -1.13466,-0.634991 -1.71239,-1.222351 v 2.444702 c 0.57773,-0.58736 1.5021,-1.127098 1.71239,-1.222351 z"
       style="fill:#000000;fill-opacity:1;fill-rule:nonzero;stroke:#000000;stroke-width:0.119309;stroke-linecap:butt;stroke-linejoin:miter;stroke-miterlimit:10;stroke-dasharray:none;stroke-opacity:1" />
    <path
       id="path25"
       d="m 196.06457,81.87614 0.0248,-0.206706 c -0.0992,0.05788 -0.1943,0.115755 -0.30179,0.144694 -0.10748,0.03307 -0.21084,0.03721 -0.31005,0.03721 -0.19431,0 -0.34727,-0.103353 -0.43822,-0.256315 -0.0992,-0.177767 -0.11576,-0.396875 -0.0703,-0.620117 0.0496,-0.223243 0.16123,-0.446485 0.33486,-0.624252 0.15296,-0.152962 0.3514,-0.256315 0.54571,-0.256315 0.0868,0 0.1819,0.0083 0.26044,0.03721 0.0827,0.02481 0.1571,0.07028 0.22325,0.124024 l 0.0951,-0.243913 c -0.0827,-0.03721 -0.1695,-0.06615 -0.26045,-0.08268 -0.0868,-0.02067 -0.1819,-0.02481 -0.27698,-0.02481 -0.26459,0 -0.52917,0.119889 -0.74414,0.314193 -0.23151,0.206705 -0.38448,0.479557 -0.44235,0.756543 -0.0579,0.276985 -0.0207,0.545703 0.11989,0.752408 0.13229,0.194304 0.35139,0.314193 0.61184,0.314193 0.10749,0 0.21084,-0.0041 0.31833,-0.03307 0.10749,-0.0248 0.21084,-0.07855 0.31006,-0.132291 z m 1.66605,-0.525033 c 0.0827,-0.396875 -0.1447,-0.715202 -0.50023,-0.715202 -0.36794,0 -0.72347,0.326595 -0.80615,0.715202 -0.0868,0.396875 0.15709,0.690397 0.50436,0.690397 0.35967,0 0.71934,-0.30179 0.80202,-0.690397 z m -0.22738,-0.02894 c -0.0744,0.3514 -0.31419,0.529167 -0.53743,0.529167 -0.20258,0 -0.38448,-0.169499 -0.30593,-0.529167 0.0786,-0.359668 0.33487,-0.504362 0.52917,-0.504362 0.2067,0 0.38861,0.152962 0.31419,0.504362 z m 1.47898,0.686263 0.18604,-0.888835 c 0.0413,-0.194303 0.0579,-0.467154 -0.30593,-0.467154 -0.26872,0 -0.45889,0.202571 -0.47956,0.227376 l 0.0455,-0.21084 h -0.21497 l -0.28939,1.339453 h 0.23564 l 0.15296,-0.731738 c 0.0413,-0.194304 0.1695,-0.44235 0.39688,-0.44235 0.28525,0 0.24391,0.210839 0.22324,0.305924 l -0.18603,0.868164 z m 1.50895,-0.119889 0.0207,-0.198438 c -0.17776,0.11989 -0.34726,0.161231 -0.50022,0.161231 -0.24805,0 -0.36381,-0.214974 -0.30593,-0.508496 0.0496,-0.231511 0.21911,-0.516765 0.53744,-0.516765 0.15296,0 0.25218,0.02481 0.39274,0.128158 l 0.0785,-0.190169 c -0.15709,-0.103353 -0.25218,-0.128158 -0.43408,-0.128158 -0.41341,0 -0.73174,0.359668 -0.80615,0.711068 -0.0785,0.367936 0.12402,0.694531 0.49609,0.694531 0.16123,0 0.33487,-0.04134 0.5209,-0.152962 z m 1.27951,-1.037663 0.0455,-0.198437 c -0.26872,0.0041 -0.46302,0.148828 -0.58705,0.285253 l 0.062,-0.268717 h -0.21084 l -0.28525,1.339453 h 0.22324 l 0.13643,-0.636654 c 0.0661,-0.297656 0.32246,-0.51263 0.61598,-0.520898 z m 1.17306,0.504362 c 0.0207,-0.09922 0.0661,-0.322461 -0.0124,-0.504362 -0.0827,-0.181901 -0.25631,-0.214974 -0.3638,-0.214974 -0.33073,0 -0.66972,0.314193 -0.74827,0.698665 -0.0827,0.392741 0.13642,0.706934 0.49609,0.706934 0.18604,0 0.37207,-0.07028 0.50436,-0.157096 l 0.0248,-0.19017 c -0.22324,0.152963 -0.42168,0.165365 -0.48783,0.165365 -0.23978,0 -0.38447,-0.21084 -0.33073,-0.504362 z m -0.13643,-0.165365 h -0.73587 c 0.0951,-0.223242 0.28525,-0.37207 0.45475,-0.37207 0.1571,0 0.30179,0.09922 0.28112,0.37207 z m 1.09657,0.740007 -0.0124,-0.177767 c -0.0909,0.06201 -0.1943,0.09922 -0.28939,0.09922 -0.11162,0 -0.13229,-0.09095 -0.0992,-0.248047 l 0.15709,-0.744141 h 0.42168 l 0.0372,-0.173633 h -0.42168 l 0.0786,-0.380338 h -0.20258 l -0.0827,0.380338 h -0.26045 l -0.0331,0.173633 h 0.24805 l -0.1695,0.79375 c -0.0331,0.177767 -0.0372,0.388607 0.1695,0.388607 0.2067,0 0.3762,-0.07441 0.45888,-0.111622 z m 1.44074,-0.574642 c 0.0207,-0.09922 0.0662,-0.322461 -0.0124,-0.504362 -0.0827,-0.181901 -0.25631,-0.214974 -0.3638,-0.214974 -0.33073,0 -0.66973,0.314193 -0.74827,0.698665 -0.0827,0.392741 0.13642,0.706934 0.49609,0.706934 0.18603,0 0.37207,-0.07028 0.50436,-0.157096 l 0.0248,-0.19017 c -0.22325,0.152963 -0.42168,0.165365 -0.48783,0.165365 -0.23978,0 -0.38447,-0.21084 -0.33073,-0.504362 z m -0.13642,-0.165364 h -0.73588 c 0.0951,-0.223243 0.28526,-0.372071 0.45476,-0.372071 0.15709,0 0.30179,0.09922 0.28112,0.372071 z m -11.37915,4.398697 0.44235,-2.067057 h -0.26872 l -0.43822,2.067057 z m 1.5813,0 0.18603,-0.888834 c 0.0413,-0.194304 0.0579,-0.467155 -0.30592,-0.467155 -0.26872,0 -0.45889,0.202571 -0.47956,0.227376 l 0.0455,-0.21084 h -0.21497 l -0.28939,1.339453 h 0.23565 l 0.15296,-0.731738 c 0.0413,-0.194303 0.1695,-0.44235 0.39687,-0.44235 0.28526,0 0.24392,0.21084 0.22325,0.305924 l -0.18604,0.868164 z m 1.25263,-0.07855 -0.0124,-0.177767 c -0.0909,0.06201 -0.1943,0.09922 -0.28939,0.09922 -0.11162,0 -0.13229,-0.09095 -0.0992,-0.248047 l 0.1571,-0.744141 h 0.42168 l 0.0372,-0.173632 h -0.42168 l 0.0786,-0.380339 h -0.20258 l -0.0827,0.380339 h -0.26045 l -0.0331,0.173632 h 0.24805 l -0.1695,0.793751 c -0.0331,0.177766 -0.0372,0.388606 0.1695,0.388606 0.2067,0 0.3762,-0.07441 0.45888,-0.111621 z m 1.44074,-0.574642 c 0.0207,-0.09922 0.0661,-0.322461 -0.0124,-0.504362 -0.0827,-0.181901 -0.25632,-0.214974 -0.3638,-0.214974 -0.33073,0 -0.66973,0.314193 -0.74828,0.698666 -0.0827,0.39274 0.13643,0.706933 0.4961,0.706933 0.18603,0 0.37207,-0.07028 0.50436,-0.157096 l 0.0248,-0.190169 c -0.22324,0.152962 -0.42168,0.165364 -0.48782,0.165364 -0.23978,0 -0.38448,-0.21084 -0.33073,-0.504362 z M 197.9673,84.77002 h -0.73588 c 0.0951,-0.223243 0.28526,-0.372071 0.45476,-0.372071 0.15709,0 0.30179,0.09922 0.28112,0.372071 z m 1.30741,-0.338998 0.0455,-0.198437 c -0.26871,0.0041 -0.46302,0.148828 -0.58704,0.285254 l 0.062,-0.268718 h -0.21084 l -0.28525,1.339453 h 0.22324 l 0.13643,-0.636653 c 0.0661,-0.297657 0.32246,-0.512631 0.61598,-0.520899 z m 1.37149,0.49196 c 0.0786,-0.355534 -0.0372,-0.690397 -0.32659,-0.690397 -0.17777,0 -0.36381,0.06201 -0.52504,0.177767 l 0.0289,-0.144694 h -0.22324 l -0.40101,1.901692 h 0.23151 l 0.15296,-0.715201 c 0.0744,0.08682 0.18604,0.169498 0.36381,0.169498 0.28938,0 0.61185,-0.293522 0.69866,-0.698665 z m -0.23151,0 c -0.062,0.305924 -0.31833,0.516764 -0.54157,0.516764 -0.11989,0 -0.18603,-0.05788 -0.22737,-0.14056 -0.0207,-0.04548 -0.0207,-0.04961 -0.008,-0.103353 l 0.12815,-0.599446 c 0.091,-0.103353 0.22325,-0.173633 0.3514,-0.173633 0.22325,0 0.35554,0.227376 0.29766,0.500228 z m 1.34256,-0.49196 0.0455,-0.198437 c -0.26872,0.0041 -0.46302,0.148828 -0.58704,0.285254 l 0.062,-0.268718 h -0.21084 l -0.28526,1.339453 h 0.22325 l 0.13642,-0.636653 c 0.0662,-0.297657 0.32246,-0.512631 0.61599,-0.520899 z m 1.17305,0.504362 c 0.0207,-0.09922 0.0662,-0.322461 -0.0124,-0.504362 -0.0827,-0.181901 -0.25632,-0.214974 -0.36381,-0.214974 -0.33073,0 -0.66972,0.314193 -0.74827,0.698666 -0.0827,0.39274 0.13643,0.706933 0.49609,0.706933 0.18604,0 0.37207,-0.07028 0.50436,-0.157096 l 0.0248,-0.190169 c -0.22324,0.152962 -0.42168,0.165364 -0.48783,0.165364 -0.23977,0 -0.38447,-0.21084 -0.33072,-0.504362 z M 202.79387,84.77002 H 202.058 c 0.0951,-0.223243 0.28526,-0.372071 0.45475,-0.372071 0.1571,0 0.30179,0.09922 0.28112,0.372071 z m 1.09658,0.740006 -0.0124,-0.177767 c -0.0909,0.06201 -0.1943,0.09922 -0.28938,0.09922 -0.11162,0 -0.1323,-0.09095 -0.0992,-0.248047 l 0.1571,-0.744141 h 0.42168 l 0.0372,-0.173632 h -0.42168 l 0.0786,-0.380339 h -0.20257 l -0.0827,0.380339 h -0.26045 l -0.0331,0.173632 h 0.24805 l -0.1695,0.793751 c -0.0331,0.177766 -0.0372,0.388606 0.1695,0.388606 0.20671,0 0.37621,-0.07441 0.45889,-0.111621 z m 1.44074,-0.574642 c 0.0207,-0.09922 0.0661,-0.322461 -0.0124,-0.504362 -0.0827,-0.181901 -0.25631,-0.214974 -0.3638,-0.214974 -0.33073,0 -0.66972,0.314193 -0.74827,0.698666 -0.0827,0.39274 0.13642,0.706933 0.49609,0.706933 0.18604,0 0.37207,-0.07028 0.50436,-0.157096 l 0.0248,-0.190169 c -0.22324,0.152962 -0.42168,0.165364 -0.48783,0.165364 -0.23978,0 -0.38447,-0.21084 -0.33073,-0.504362 z m -0.13643,-0.165364 h -0.73587 c 0.0951,-0.223243 0.28525,-0.372071 0.45475,-0.372071 0.1571,0 0.30179,0.09922 0.28112,0.372071 z m 1.30741,-0.338998 0.0455,-0.198437 c -0.26872,0.0041 -0.46302,0.148828 -0.58704,0.285254 l 0.062,-0.268718 h -0.21084 l -0.28526,1.339453 h 0.22325 l 0.13642,-0.636653 c 0.0661,-0.297657 0.32246,-0.512631 0.61598,-0.520899 z m 0,0"
       style="fill:#000000;fill-opacity:1;fill-rule:nonzero;stroke:none;stroke-width:0.299395"
       aria-label="Concrete&#10;Interpreter" />
    <path
       id="path26"
       d="m 179.21046,109.19401 8.94842,7.33757 h 21.416"
       style="fill:none;stroke:#000000;stroke-width:0.119309;stroke-linecap:butt;stroke-linejoin:miter;stroke-miterlimit:10;stroke-dasharray:none;stroke-opacity:1" />
    <path
       id="path27"
       d="m 211.28727,116.53157 c -0.21029,-0.0953 -1.13466,-0.63499 -1.71239,-1.22235 v 2.4447 c 0.57773,-0.58736 1.5021,-1.1271 1.71239,-1.22235 z"
       style="fill:#000000;fill-opacity:1;fill-rule:nonzero;stroke:#000000;stroke-width:0.119309;stroke-linecap:butt;stroke-linejoin:miter;stroke-miterlimit:10;stroke-dasharray:none;stroke-opacity:1" />
    <path
       id="path28"
       d="m 195.76485,110.55863 c 0.0413,-0.19431 -0.0207,-0.339 -0.0744,-0.40928 -0.10749,-0.14883 -0.19844,-0.17777 -0.45889,-0.24391 -0.16123,-0.0413 -0.2067,-0.0537 -0.28112,-0.1323 -0.0207,-0.0165 -0.0827,-0.10335 -0.0537,-0.23564 0.0331,-0.17363 0.23564,-0.35553 0.5085,-0.35553 0.25218,0 0.37207,0.0992 0.46715,0.19017 l 0.0951,-0.23565 c -0.1447,-0.0992 -0.29766,-0.14883 -0.51677,-0.14883 -0.41341,0 -0.73587,0.28939 -0.79788,0.58705 -0.0289,0.12815 -0.0124,0.25218 0.0786,0.3762 0.0992,0.13643 0.22324,0.1695 0.3886,0.21498 0.23978,0.062 0.26872,0.0703 0.33487,0.14469 0.0496,0.0496 0.0951,0.14883 0.0661,0.27698 -0.0413,0.19844 -0.24805,0.39275 -0.51676,0.39275 -0.12403,0 -0.38448,-0.0289 -0.59118,-0.23978 l -0.0951,0.23978 c 0.22738,0.16536 0.45476,0.2067 0.64493,0.2067 0.39274,0 0.73173,-0.30179 0.80201,-0.62838 z m 1.65882,-0.76068 h -0.22324 c -0.58705,0.94671 -0.62012,1.08314 -0.64079,1.15342 0.0207,-0.19844 -0.0992,-0.75655 -0.10336,-0.78135 l -0.0827,-0.37207 h -0.23564 l 0.29765,1.32292 -0.16536,0.26871 c -0.11162,0.17364 -0.16123,0.17364 -0.20257,0.17364 -0.0496,0 -0.1447,-0.0124 -0.22738,-0.0496 l -0.0207,0.1943 c 0.062,0.0165 0.14056,0.0248 0.20671,0.0248 0.10335,0 0.22324,-0.0372 0.41341,-0.33899 z m 1.89239,1.32292 0.18603,-0.88884 c 0.0455,-0.19844 0.0537,-0.46715 -0.30592,-0.46715 -0.17777,0 -0.3514,0.0827 -0.49609,0.24391 -0.0289,-0.22738 -0.23152,-0.24391 -0.3266,-0.24391 -0.21497,0 -0.38447,0.12402 -0.48783,0.22737 l 0.0496,-0.21084 h -0.21497 l -0.28939,1.33946 h 0.23565 l 0.15296,-0.73174 c 0.0455,-0.20257 0.17777,-0.44235 0.39687,-0.44235 0.27699,0 0.25218,0.1943 0.22738,0.30592 l -0.18604,0.86817 h 0.23152 l 0.15709,-0.73174 c 0.0455,-0.20257 0.17363,-0.44235 0.39688,-0.44235 0.27698,0 0.24804,0.1943 0.22737,0.30592 l -0.18603,0.86817 z m 1.81384,-0.6656 c 0.0786,-0.36793 -0.0537,-0.69039 -0.33486,-0.69039 -0.11576,0 -0.30593,0.0289 -0.51677,0.17363 l 0.19017,-0.8847 h -0.22324 l -0.44235,2.06706 h 0.23151 l 0.0331,-0.13643 c 0.0538,0.0661 0.16123,0.1695 0.36381,0.1695 0.29765,0 0.61598,-0.29766 0.69866,-0.69867 z m -0.23151,0 c -0.0827,0.38861 -0.35967,0.51677 -0.54157,0.51677 -0.11575,0 -0.2067,-0.0538 -0.24805,-0.19017 l 0.14056,-0.66146 c 0.062,-0.0703 0.19017,-0.17363 0.35554,-0.17363 0.17777,0 0.3762,0.12815 0.29352,0.50849 z m 1.82418,0.008 c 0.0827,-0.39687 -0.1447,-0.7152 -0.50023,-0.7152 -0.36794,0 -0.72347,0.32659 -0.80615,0.7152 -0.0868,0.39688 0.15709,0.6904 0.50436,0.6904 0.35967,0 0.71934,-0.30179 0.80202,-0.6904 z m -0.22738,-0.0289 c -0.0744,0.3514 -0.31419,0.52917 -0.53743,0.52917 -0.20257,0 -0.38448,-0.1695 -0.30593,-0.52917 0.0786,-0.35967 0.33487,-0.50436 0.52917,-0.50436 0.20671,0 0.38861,0.15296 0.31419,0.50436 z m 0.64389,0.68627 0.44235,-2.06706 h -0.22324 l -0.44235,2.06706 z m 0.71314,0 0.28111,-1.32292 h -0.22324 l -0.28112,1.32292 z m 0.38447,-1.68672 0.0537,-0.26459 h -0.26458 l -0.0537,0.26459 z m 1.12964,1.56683 0.0207,-0.19844 c -0.17776,0.11989 -0.34726,0.16123 -0.50022,0.16123 -0.24805,0 -0.36381,-0.21497 -0.30593,-0.5085 0.0496,-0.23151 0.21911,-0.51676 0.53744,-0.51676 0.15296,0 0.25218,0.0248 0.39274,0.12816 l 0.0786,-0.19017 c -0.1571,-0.10336 -0.25218,-0.12816 -0.43409,-0.12816 -0.41341,0 -0.73173,0.35967 -0.80615,0.71107 -0.0786,0.36793 0.12403,0.69453 0.4961,0.69453 0.16123,0 0.33486,-0.0413 0.52089,-0.15296 z m -11.53728,3.699 0.44236,-2.06706 h -0.26872 l -0.43822,2.06706 z m 1.5813,0 0.18604,-0.88884 c 0.0413,-0.1943 0.0579,-0.46715 -0.30593,-0.46715 -0.26871,0 -0.45888,0.20257 -0.47955,0.22737 l 0.0455,-0.21084 h -0.21497 l -0.28939,1.33946 h 0.23564 l 0.15297,-0.73174 c 0.0413,-0.19431 0.1695,-0.44235 0.39687,-0.44235 0.28526,0 0.24391,0.21084 0.22324,0.30592 l -0.18603,0.86817 z m 1.25264,-0.0785 -0.0124,-0.17777 c -0.0909,0.062 -0.19431,0.0992 -0.28939,0.0992 -0.11162,0 -0.13229,-0.0909 -0.0992,-0.24805 l 0.1571,-0.74414 h 0.42168 l 0.0372,-0.17363 h -0.42168 l 0.0786,-0.38034 h -0.20257 l -0.0827,0.38034 h -0.26045 l -0.0331,0.17363 h 0.24804 l -0.1695,0.79375 c -0.0331,0.17777 -0.0372,0.38861 0.1695,0.38861 0.20671,0 0.37621,-0.0744 0.45889,-0.11162 z m 1.44074,-0.57464 c 0.0207,-0.0992 0.0661,-0.32247 -0.0124,-0.50437 -0.0827,-0.1819 -0.25632,-0.21497 -0.36381,-0.21497 -0.33072,0 -0.66972,0.31419 -0.74827,0.69866 -0.0827,0.39275 0.13643,0.70694 0.49609,0.70694 0.18604,0 0.37207,-0.0703 0.50437,-0.1571 l 0.0248,-0.19017 c -0.22324,0.15296 -0.42168,0.16537 -0.48783,0.16537 -0.23977,0 -0.38447,-0.21084 -0.33072,-0.50436 z m -0.13643,-0.16537 h -0.73587 c 0.0951,-0.22324 0.28525,-0.37207 0.45475,-0.37207 0.1571,0 0.30179,0.0992 0.28112,0.37207 z m 1.30742,-0.339 0.0455,-0.19843 c -0.26872,0.004 -0.46302,0.14882 -0.58704,0.28525 l 0.062,-0.26872 h -0.21084 l -0.28525,1.33946 h 0.22324 l 0.13642,-0.63666 c 0.0662,-0.29765 0.32246,-0.51263 0.61599,-0.5209 z m 1.37149,0.49196 c 0.0786,-0.35553 -0.0372,-0.69039 -0.3266,-0.69039 -0.17776,0 -0.3638,0.062 -0.52503,0.17776 l 0.0289,-0.14469 h -0.22324 l -0.40101,1.90169 h 0.23151 l 0.15296,-0.7152 c 0.0744,0.0868 0.18604,0.1695 0.3638,0.1695 0.28939,0 0.61185,-0.29352 0.69867,-0.69867 z m -0.23151,0 c -0.062,0.30593 -0.31833,0.51677 -0.54157,0.51677 -0.11989,0 -0.18604,-0.0579 -0.22738,-0.14056 -0.0207,-0.0455 -0.0207,-0.0496 -0.008,-0.10336 l 0.12816,-0.59944 c 0.091,-0.10336 0.22324,-0.17364 0.3514,-0.17364 0.22324,0 0.35554,0.22738 0.29766,0.50023 z m 1.34255,-0.49196 0.0455,-0.19843 c -0.26872,0.004 -0.46302,0.14882 -0.58705,0.28525 l 0.062,-0.26872 h -0.21084 l -0.28526,1.33946 h 0.22324 l 0.13643,-0.63666 c 0.0662,-0.29765 0.32246,-0.51263 0.61598,-0.5209 z m 1.17306,0.50437 c 0.0207,-0.0992 0.0661,-0.32247 -0.0124,-0.50437 -0.0827,-0.1819 -0.25631,-0.21497 -0.3638,-0.21497 -0.33073,0 -0.66972,0.31419 -0.74827,0.69866 -0.0827,0.39275 0.13642,0.70694 0.49609,0.70694 0.18604,0 0.37207,-0.0703 0.50436,-0.1571 l 0.0248,-0.19017 c -0.22324,0.15296 -0.42168,0.16537 -0.48783,0.16537 -0.23978,0 -0.38447,-0.21084 -0.33073,-0.50436 z m -0.13643,-0.16537 h -0.73587 c 0.0951,-0.22324 0.28525,-0.37207 0.45475,-0.37207 0.1571,0 0.30179,0.0992 0.28112,0.37207 z m 1.09658,0.74001 -0.0124,-0.17777 c -0.0909,0.062 -0.1943,0.0992 -0.28938,0.0992 -0.11162,0 -0.13229,-0.0909 -0.0992,-0.24805 l 0.15709,-0.74414 h 0.42168 l 0.0372,-0.17363 h -0.42168 l 0.0786,-0.38034 h -0.20257 l -0.0827,0.38034 h -0.26044 l -0.0331,0.17363 h 0.24805 l -0.1695,0.79375 c -0.0331,0.17777 -0.0372,0.38861 0.1695,0.38861 0.2067,0 0.3762,-0.0744 0.45889,-0.11162 z m 1.44073,-0.57464 c 0.0207,-0.0992 0.0662,-0.32247 -0.0124,-0.50437 -0.0827,-0.1819 -0.25631,-0.21497 -0.3638,-0.21497 -0.33073,0 -0.66973,0.31419 -0.74827,0.69866 -0.0827,0.39275 0.13642,0.70694 0.49609,0.70694 0.18603,0 0.37207,-0.0703 0.50436,-0.1571 l 0.0248,-0.19017 c -0.22325,0.15296 -0.42168,0.16537 -0.48783,0.16537 -0.23978,0 -0.38447,-0.21084 -0.33073,-0.50436 z m -0.13642,-0.16537 h -0.73587 c 0.0951,-0.22324 0.28525,-0.37207 0.45475,-0.37207 0.1571,0 0.30179,0.0992 0.28112,0.37207 z m 1.30741,-0.339 0.0455,-0.19843 c -0.26872,0.004 -0.46302,0.14882 -0.58705,0.28525 l 0.062,-0.26872 h -0.21084 l -0.28526,1.33946 h 0.22324 l 0.13643,-0.63666 c 0.0661,-0.29765 0.32246,-0.51263 0.61598,-0.5209 z m 0,0"
       style="fill:#000000;fill-opacity:1;fill-rule:nonzero;stroke:none;stroke-width:0.299395"
       aria-label="Symbolic&#10;Interpreter" />
    <path
       id="path29"
       d="m 179.21046,101.97562 h 8.94842 21.46243"
       style="fill:none;stroke:#000000;stroke-width:0.212167;stroke-linecap:butt;stroke-linejoin:miter;stroke-miterlimit:10;stroke-dasharray:0.212167, 0.59656;stroke-dashoffset:0;stroke-opacity:1" />
    <path
       id="path30"
       d="m 211.18024,101.97562 c -0.19144,-0.0857 -1.03297,-0.57161 -1.55893,-1.10034 v 2.20068 c 0.52596,-0.52873 1.36749,-1.0146 1.55893,-1.10034 z"
       style="fill:#000000;fill-opacity:1;fill-rule:nonzero;stroke:#000000;stroke-width:0.212167;stroke-linecap:butt;stroke-linejoin:miter;stroke-miterlimit:10;stroke-dasharray:none;stroke-opacity:1" />
    <path
       id="path31"
       d="m 196.80561,96.385848 0.0248,-0.206706 c -0.0992,0.05788 -0.1943,0.115755 -0.30179,0.144694 -0.10749,0.03307 -0.21084,0.03721 -0.31006,0.03721 -0.1943,0 -0.34726,-0.103353 -0.43821,-0.256315 -0.0992,-0.177767 -0.11576,-0.396875 -0.0703,-0.620117 0.0496,-0.223242 0.16123,-0.446485 0.33486,-0.624251 0.15296,-0.152963 0.3514,-0.256316 0.5457,-0.256316 0.0868,0 0.1819,0.0083 0.26045,0.03721 0.0827,0.0248 0.1571,0.07028 0.22324,0.124023 l 0.0951,-0.243913 c -0.0827,-0.03721 -0.1695,-0.06615 -0.26045,-0.08268 -0.0868,-0.02067 -0.1819,-0.02481 -0.27699,-0.02481 -0.26458,0 -0.52916,0.11989 -0.74414,0.314193 -0.23151,0.206706 -0.38447,0.479557 -0.44235,0.756543 -0.0579,0.276986 -0.0207,0.545703 0.11989,0.752409 0.13229,0.194303 0.3514,0.314192 0.61185,0.314192 0.10749,0 0.21084,-0.0041 0.31833,-0.03307 0.10748,-0.02481 0.21084,-0.07855 0.31006,-0.132292 z m 1.4273,0.132291 0.27699,-1.322916 h -0.23152 l -0.1819,0.86403 c -0.0455,0.223242 -0.23564,0.326595 -0.42994,0.326595 -0.21084,0 -0.21498,-0.07441 -0.18604,-0.202572 l 0.20671,-0.988053 h -0.23151 l -0.21084,0.996321 c -0.0455,0.214974 -0.004,0.359668 0.23977,0.359668 0.16124,0 0.38034,-0.04961 0.55398,-0.177767 l -0.0289,0.144694 z m 1.39733,-0.380338 c 0.0372,-0.165365 -0.0537,-0.264583 -0.0579,-0.276986 -0.0951,-0.103353 -0.1695,-0.119889 -0.31419,-0.148828 -0.1571,-0.03307 -0.28525,-0.06201 -0.25632,-0.206706 0.0372,-0.186035 0.25219,-0.186035 0.29353,-0.186035 0.0951,0 0.25218,0.0124 0.39687,0.115755 l 0.0786,-0.194303 c -0.14056,-0.07441 -0.25631,-0.09508 -0.40928,-0.09508 -0.0744,0 -0.49609,0 -0.57877,0.388607 -0.0289,0.144694 0.0372,0.239779 0.0992,0.297656 0.0785,0.06615 0.14056,0.07855 0.29765,0.111622 0.10335,0.02067 0.26872,0.05788 0.23565,0.214973 -0.0455,0.206706 -0.28112,0.206706 -0.32246,0.206706 -0.24392,0 -0.38448,-0.111621 -0.43409,-0.148828 l -0.0785,0.202572 c 0.0868,0.04961 0.23151,0.132291 0.47542,0.132291 0.0537,0 0.21911,0 0.3638,-0.09508 0.11162,-0.07028 0.18604,-0.19017 0.21084,-0.318327 z m 0.99736,0.30179 -0.0124,-0.177767 c -0.091,0.06201 -0.1943,0.09922 -0.28939,0.09922 -0.11162,0 -0.13229,-0.09095 -0.0992,-0.248047 l 0.1571,-0.74414 h 0.42168 l 0.0372,-0.173633 h -0.42168 l 0.0785,-0.380339 h -0.20258 l -0.0827,0.380339 h -0.26045 l -0.0331,0.173633 h 0.24805 l -0.1695,0.79375 c -0.0331,0.177767 -0.0372,0.388606 0.1695,0.388606 0.2067,0 0.3762,-0.07441 0.45888,-0.111621 z m 1.6061,-0.578776 c 0.0827,-0.396875 -0.1447,-0.715202 -0.50023,-0.715202 -0.36794,0 -0.72347,0.326595 -0.80615,0.715202 -0.0868,0.396875 0.15709,0.690397 0.50436,0.690397 0.35967,0 0.71934,-0.30179 0.80202,-0.690397 z m -0.22738,-0.02894 c -0.0744,0.3514 -0.31419,0.529167 -0.53743,0.529167 -0.20257,0 -0.38448,-0.169499 -0.30593,-0.529167 0.0786,-0.359668 0.33487,-0.504362 0.52917,-0.504362 0.20671,0 0.38861,0.152963 0.31419,0.504362 z m 2.3058,0.686263 0.18604,-0.888834 c 0.0455,-0.198438 0.0537,-0.467155 -0.30592,-0.467155 -0.17777,0 -0.3514,0.08268 -0.4961,0.243913 -0.0289,-0.227377 -0.23151,-0.243913 -0.32659,-0.243913 -0.21498,0 -0.38448,0.124023 -0.48783,0.227376 l 0.0496,-0.21084 h -0.21497 l -0.28939,1.339453 h 0.23564 l 0.15297,-0.731738 c 0.0455,-0.202571 0.17776,-0.44235 0.39687,-0.44235 0.27699,0 0.25218,0.194303 0.22738,0.305924 l -0.18604,0.868164 h 0.23151 l 0.1571,-0.731738 c 0.0455,-0.202571 0.17363,-0.44235 0.39687,-0.44235 0.27699,0 0.24805,0.194303 0.22738,0.305924 l -0.18604,0.868164 z m -11.05462,3.580142 0.44235,-2.067056 h -0.26871 l -0.43822,2.067056 z m 1.58234,0 0.18603,-0.888833 c 0.0413,-0.194303 0.0579,-0.467155 -0.30592,-0.467155 -0.26872,0 -0.45889,0.202572 -0.47956,0.227376 l 0.0455,-0.21084 h -0.21497 l -0.28939,1.339452 h 0.23565 l 0.15296,-0.731737 c 0.0413,-0.194303 0.1695,-0.44235 0.39687,-0.44235 0.28526,0 0.24392,0.21084 0.22325,0.305924 l -0.18604,0.868163 z m 1.25263,-0.0786 -0.0124,-0.177764 c -0.0909,0.06201 -0.1943,0.09922 -0.28939,0.09922 -0.11162,0 -0.13229,-0.09095 -0.0992,-0.248047 l 0.1571,-0.74414 h 0.42168 l 0.0372,-0.173633 h -0.42168 l 0.0785,-0.380339 h -0.20257 l -0.0827,0.380339 h -0.26045 l -0.0331,0.173633 h 0.24805 l -0.1695,0.79375 c -0.0331,0.177767 -0.0372,0.388611 0.1695,0.388611 0.2067,0 0.3762,-0.0744 0.45888,-0.11163 z m 1.44074,-0.574639 c 0.0207,-0.09922 0.0661,-0.322461 -0.0124,-0.504362 -0.0827,-0.181901 -0.25632,-0.214973 -0.3638,-0.214973 -0.33073,0 -0.66973,0.314192 -0.74828,0.698665 -0.0827,0.392741 0.13643,0.706939 0.4961,0.706939 0.18603,0 0.37207,-0.0703 0.50436,-0.157102 l 0.0248,-0.190169 c -0.22324,0.152962 -0.42168,0.165364 -0.48782,0.165364 -0.23978,0 -0.38448,-0.21084 -0.33073,-0.504362 z m -0.13643,-0.165364 h -0.73587 c 0.0951,-0.223242 0.28526,-0.37207 0.45476,-0.37207 0.15709,0 0.30179,0.09922 0.28111,0.37207 z m 1.30742,-0.338998 0.0455,-0.198437 c -0.26871,0.0041 -0.46302,0.148828 -0.58704,0.285254 l 0.062,-0.268718 h -0.21084 l -0.28525,1.339452 h 0.22324 l 0.13643,-0.636652 c 0.0661,-0.297656 0.32246,-0.51263 0.61598,-0.520899 z m 1.37149,0.49196 c 0.0785,-0.355534 -0.0372,-0.690397 -0.32659,-0.690397 -0.17777,0 -0.36381,0.06201 -0.52504,0.177767 l 0.0289,-0.144694 h -0.22324 l -0.40101,1.901695 h 0.23151 l 0.15296,-0.715204 c 0.0744,0.08681 0.18604,0.169504 0.36381,0.169504 0.28938,0 0.61185,-0.293528 0.69866,-0.698671 z m -0.23151,0 c -0.062,0.305924 -0.31833,0.516764 -0.54157,0.516764 -0.11989,0 -0.18603,-0.05788 -0.22737,-0.14056 -0.0207,-0.04547 -0.0207,-0.04961 -0.008,-0.103352 l 0.12815,-0.599447 c 0.0909,-0.103353 0.22325,-0.173633 0.3514,-0.173633 0.22325,0 0.35554,0.227377 0.29766,0.500228 z m 1.34152,-0.49196 0.0455,-0.198437 c -0.26872,0.0041 -0.46302,0.148828 -0.58705,0.285254 l 0.062,-0.268718 h -0.21084 l -0.28525,1.339452 h 0.22324 l 0.13643,-0.636652 c 0.0661,-0.297656 0.32246,-0.51263 0.61598,-0.520899 z m 1.17306,0.504362 c 0.0207,-0.09922 0.0661,-0.322461 -0.0124,-0.504362 -0.0827,-0.181901 -0.25631,-0.214973 -0.3638,-0.214973 -0.33073,0 -0.66972,0.314192 -0.74827,0.698665 -0.0827,0.392741 0.13642,0.706939 0.49609,0.706939 0.18604,0 0.37207,-0.0703 0.50436,-0.157102 l 0.0248,-0.190169 c -0.22324,0.152962 -0.42168,0.165364 -0.48783,0.165364 -0.23978,0 -0.38447,-0.21084 -0.33073,-0.504362 z m -0.13643,-0.165364 h -0.73587 c 0.0951,-0.223242 0.28525,-0.37207 0.45475,-0.37207 0.1571,0 0.30179,0.09922 0.28112,0.37207 z m 1.09761,0.740003 -0.0124,-0.177764 c -0.0909,0.06201 -0.19431,0.09922 -0.28939,0.09922 -0.11162,0 -0.13229,-0.09095 -0.0992,-0.248047 l 0.1571,-0.74414 h 0.42168 l 0.0372,-0.173633 h -0.42168 l 0.0786,-0.380339 h -0.20257 l -0.0827,0.380339 h -0.26045 l -0.0331,0.173633 h 0.24805 l -0.1695,0.79375 c -0.0331,0.177767 -0.0372,0.388611 0.1695,0.388611 0.20671,0 0.3762,-0.0744 0.45889,-0.11163 z m 1.4397,-0.574639 c 0.0207,-0.09922 0.0662,-0.322461 -0.0124,-0.504362 -0.0827,-0.181901 -0.25632,-0.214973 -0.3638,-0.214973 -0.33073,0 -0.66973,0.314192 -0.74828,0.698665 -0.0827,0.392741 0.13643,0.706939 0.4961,0.706939 0.18603,0 0.37207,-0.0703 0.50436,-0.157102 l 0.0248,-0.190169 c -0.22324,0.152962 -0.42168,0.165364 -0.48782,0.165364 -0.23978,0 -0.38448,-0.21084 -0.33073,-0.504362 z m -0.13642,-0.165364 h -0.73588 c 0.0951,-0.223242 0.28526,-0.37207 0.45476,-0.37207 0.15709,0 0.30179,0.09922 0.28112,0.37207 z m 1.30844,-0.338998 0.0455,-0.198437 c -0.26872,0.0041 -0.46302,0.148828 -0.58705,0.285254 l 0.062,-0.268718 h -0.21084 l -0.28526,1.339452 h 0.22325 l 0.13642,-0.636652 c 0.0662,-0.297656 0.32246,-0.51263 0.61598,-0.520899 z m 0.95395,0.777214 c 0.0372,-0.165365 -0.0537,-0.264583 -0.0579,-0.276986 -0.0951,-0.103353 -0.1695,-0.119889 -0.31419,-0.148828 -0.1571,-0.03307 -0.28525,-0.06201 -0.25631,-0.206706 0.0372,-0.186035 0.25218,-0.186035 0.29352,-0.186035 0.0951,0 0.25218,0.0124 0.39687,0.115756 l 0.0786,-0.194304 c -0.14056,-0.07441 -0.25631,-0.09508 -0.40928,-0.09508 -0.0744,0 -0.49609,0 -0.57877,0.388606 -0.0289,0.144694 0.0372,0.239779 0.0992,0.297657 0.0785,0.06615 0.14056,0.07855 0.29765,0.111621 0.10336,0.02067 0.26872,0.05788 0.23565,0.214973 -0.0455,0.206706 -0.28112,0.206706 -0.32246,0.206706 -0.24392,0 -0.38448,-0.111621 -0.43409,-0.148828 l -0.0785,0.202572 c 0.0868,0.04961 0.23151,0.132293 0.47542,0.132293 0.0537,0 0.21911,0 0.3638,-0.0951 0.11162,-0.07028 0.18604,-0.190165 0.21084,-0.318323 z m 0,0"
       style="fill:#000000;fill-opacity:1;fill-rule:nonzero;stroke:none;stroke-width:0.299395"
       aria-label="Custom&#10;Interpreters" />
  </g>
</svg>
